<svg xmlns="http://www.w3.org/2000/svg" xmlns:xlink="http://www.w3.org/1999/xlink" width="50" zoomAndPan="magnify" viewBox="0 0 37.5 37.499999" height="50" preserveAspectRatio="xMidYMid meet" version="1.0"><defs><clipPath id="02cfc34958"><path d="M 0.664062 15 L 1 15 L 1 16 L 0.664062 16 Z M 0.664062 15 " clip-rule="nonzero"/></clipPath><clipPath id="1610deefbb"><path d="M 0.664062 5 L 6 5 L 6 19 L 0.664062 19 Z M 0.664062 5 " clip-rule="nonzero"/></clipPath><clipPath id="60af0490cd"><path d="M 0.664062 18 L 1 18 L 1 19 L 0.664062 19 Z M 0.664062 18 " clip-rule="nonzero"/></clipPath><clipPath id="19ee5a87ee"><path d="M 28 3 L 36.191406 3 L 36.191406 19 L 28 19 Z M 28 3 " clip-rule="nonzero"/></clipPath><clipPath id="924e625e70"><path d="M 36 18 L 36.191406 18 L 36.191406 19 L 36 19 Z M 36 18 " clip-rule="nonzero"/></clipPath><clipPath id="3aeb578ea7"><path d="M 28 18 L 36.191406 18 L 36.191406 34 L 28 34 Z M 28 18 " clip-rule="nonzero"/></clipPath><clipPath id="30cb58e265"><path d="M 0.664062 20 L 1 20 L 1 22 L 0.664062 22 Z M 0.664062 20 " clip-rule="nonzero"/></clipPath><clipPath id="154eabeaeb"><path d="M 0.664062 18 L 9 18 L 9 34 L 0.664062 34 Z M 0.664062 18 " clip-rule="nonzero"/></clipPath></defs><path fill="#e9a6c7" d="M 6.0625 5.679688 C 6.359375 5.363281 6.691406 5.046875 7.054688 4.738281 C 6.730469 5 6.40625 5.300781 6.085938 5.644531 C 5.722656 5.960938 5.398438 6.289062 5.117188 6.617188 C 5.425781 6.269531 5.746094 5.960938 6.0625 5.679688 Z M 6.0625 5.679688 " fill-opacity="1" fill-rule="nonzero"/><path fill="#e9a6c7" d="M 6.296875 5.464844 C 6.703125 5.128906 7.152344 4.800781 7.648438 4.492188 C 7.953125 4.160156 8.265625 3.875 8.578125 3.636719 C 8.101562 3.929688 7.664062 4.242188 7.265625 4.566406 C 6.941406 4.824219 6.617188 5.125 6.296875 5.464844 Z M 6.296875 5.464844 " fill-opacity="1" fill-rule="nonzero"/><path fill="#e9a6c7" d="M 7.929688 4.320312 C 8.472656 3.996094 9.0625 3.695312 9.695312 3.421875 C 9.964844 3.109375 10.238281 2.84375 10.511719 2.625 C 9.921875 2.882812 9.367188 3.167969 8.851562 3.46875 C 8.542969 3.707031 8.234375 3.992188 7.929688 4.320312 Z M 7.929688 4.320312 " fill-opacity="1" fill-rule="nonzero"/><path fill="#e9a6c7" d="M 10.058594 3.269531 C 10.738281 2.992188 11.464844 2.742188 12.230469 2.53125 C 12.429688 2.242188 12.636719 2 12.84375 1.804688 C 12.148438 1.996094 11.480469 2.226562 10.847656 2.484375 C 10.585938 2.695312 10.320312 2.960938 10.058594 3.269531 Z M 10.058594 3.269531 " fill-opacity="1" fill-rule="nonzero"/><path fill="#e9a6c7" d="M 15.160156 1.9375 C 15.269531 1.667969 15.382812 1.441406 15.496094 1.261719 C 14.722656 1.367188 13.96875 1.511719 13.238281 1.699219 C 13.042969 1.890625 12.851562 2.132812 12.660156 2.417969 C 13.464844 2.214844 14.300781 2.054688 15.160156 1.9375 Z M 15.160156 1.9375 " fill-opacity="1" fill-rule="nonzero"/><path fill="#e9a6c7" d="M 18.328125 1.066406 C 17.523438 1.070312 16.71875 1.117188 15.925781 1.207031 C 15.828125 1.386719 15.734375 1.609375 15.640625 1.878906 C 16.523438 1.777344 17.421875 1.726562 18.324219 1.722656 C 18.324219 1.460938 18.328125 1.246094 18.328125 1.066406 Z M 18.328125 1.066406 " fill-opacity="1" fill-rule="nonzero"/><path fill="#e9a6c7" d="M 21.492188 1.925781 C 21.382812 1.65625 21.277344 1.429688 21.164062 1.25 C 20.378906 1.148438 19.578125 1.085938 18.773438 1.070312 C 18.789062 1.25 18.804688 1.464844 18.820312 1.726562 C 19.722656 1.746094 20.613281 1.8125 21.492188 1.925781 Z M 21.492188 1.925781 " fill-opacity="1" fill-rule="nonzero"/><path fill="#e9a6c7" d="M 24.429688 2.515625 C 24.230469 2.222656 24.027344 1.980469 23.820312 1.785156 C 23.101562 1.589844 22.359375 1.429688 21.589844 1.3125 C 21.71875 1.492188 21.84375 1.722656 21.964844 1.996094 C 22.816406 2.125 23.640625 2.300781 24.429688 2.515625 Z M 24.429688 2.515625 " fill-opacity="1" fill-rule="nonzero"/><path fill="#e9a6c7" d="M 24.855469 2.632812 C 25.601562 2.855469 26.3125 3.109375 26.976562 3.394531 C 26.707031 3.082031 26.4375 2.820312 26.164062 2.601562 C 25.546875 2.335938 24.894531 2.097656 24.207031 1.894531 C 24.425781 2.09375 24.640625 2.339844 24.855469 2.632812 Z M 24.855469 2.632812 " fill-opacity="1" fill-rule="nonzero"/><path fill="#e9a6c7" d="M 27.328125 3.550781 C 27.945312 3.832031 28.515625 4.140625 29.039062 4.464844 C 28.730469 4.132812 28.421875 3.847656 28.109375 3.609375 C 27.609375 3.300781 27.070312 3.011719 26.492188 2.746094 C 26.773438 2.96875 27.050781 3.234375 27.328125 3.550781 Z M 27.328125 3.550781 " fill-opacity="1" fill-rule="nonzero"/><path fill="#e9a6c7" d="M 2.933594 10.207031 C 2.996094 10.105469 3.058594 9.996094 3.113281 9.882812 C 3.054688 9.988281 2.992188 10.097656 2.933594 10.207031 Z M 2.933594 10.207031 " fill-opacity="1" fill-rule="nonzero"/><path fill="#e9a6c7" d="M 5.105469 6.996094 C 5.507812 6.660156 5.964844 6.335938 6.476562 6.023438 C 6.785156 5.539062 7.109375 5.105469 7.441406 4.722656 C 6.941406 5.035156 6.488281 5.363281 6.085938 5.699219 C 5.746094 6.082031 5.417969 6.515625 5.105469 6.996094 Z M 5.105469 6.996094 " fill-opacity="1" fill-rule="nonzero"/><path fill="#e9a6c7" d="M 6.773438 5.847656 C 7.339844 5.519531 7.964844 5.210938 8.644531 4.925781 C 8.925781 4.441406 9.214844 4.011719 9.511719 3.644531 C 8.871094 3.921875 8.273438 4.222656 7.726562 4.546875 C 7.398438 4.929688 7.078125 5.363281 6.773438 5.847656 Z M 6.773438 5.847656 " fill-opacity="1" fill-rule="nonzero"/><path fill="#e9a6c7" d="M 9.035156 4.765625 C 9.777344 4.472656 10.570312 4.210938 11.414062 3.984375 C 11.636719 3.515625 11.859375 3.097656 12.089844 2.742188 C 11.3125 2.957031 10.574219 3.207031 9.878906 3.488281 C 9.589844 3.859375 9.308594 4.285156 9.035156 4.765625 Z M 9.035156 4.765625 " fill-opacity="1" fill-rule="nonzero"/><path fill="#e9a6c7" d="M 11.894531 3.863281 C 12.792969 3.640625 13.734375 3.464844 14.710938 3.335938 C 14.832031 2.878906 14.957031 2.480469 15.085938 2.136719 C 14.203125 2.253906 13.351562 2.417969 12.527344 2.625 C 12.3125 2.980469 12.101562 3.394531 11.894531 3.863281 Z M 11.894531 3.863281 " fill-opacity="1" fill-rule="nonzero"/><path fill="#e9a6c7" d="M 18.320312 3.097656 C 18.320312 2.648438 18.320312 2.257812 18.324219 1.917969 C 17.398438 1.917969 16.480469 1.972656 15.574219 2.074219 C 15.464844 2.417969 15.359375 2.816406 15.253906 3.269531 C 16.261719 3.15625 17.285156 3.097656 18.320312 3.097656 Z M 18.320312 3.097656 " fill-opacity="1" fill-rule="nonzero"/><path fill="#e9a6c7" d="M 18.886719 3.101562 C 19.914062 3.121094 20.933594 3.195312 21.929688 3.324219 C 21.8125 2.867188 21.691406 2.46875 21.566406 2.125 C 20.667969 2.007812 19.753906 1.9375 18.832031 1.921875 C 18.851562 2.261719 18.867188 2.652344 18.886719 3.101562 Z M 18.886719 3.101562 " fill-opacity="1" fill-rule="nonzero"/><path fill="#e9a6c7" d="M 22.050781 2.195312 C 22.195312 2.539062 22.332031 2.941406 22.46875 3.398438 C 23.429688 3.539062 24.355469 3.730469 25.238281 3.964844 C 25.019531 3.492188 24.796875 3.078125 24.570312 2.722656 C 23.761719 2.503906 22.921875 2.328125 22.050781 2.195312 Z M 22.050781 2.195312 " fill-opacity="1" fill-rule="nonzero"/><path fill="#e9a6c7" d="M 25.003906 2.84375 C 25.242188 3.203125 25.476562 3.621094 25.707031 4.09375 C 26.53125 4.328125 27.304688 4.601562 28.023438 4.898438 C 27.742188 4.414062 27.453125 3.988281 27.160156 3.617188 C 26.484375 3.328125 25.765625 3.070312 25.003906 2.84375 Z M 25.003906 2.84375 " fill-opacity="1" fill-rule="nonzero"/><path fill="#e9a6c7" d="M 27.515625 3.773438 C 27.820312 4.148438 28.117188 4.578125 28.402344 5.0625 C 29.058594 5.351562 29.660156 5.664062 30.207031 5.996094 C 29.898438 5.507812 29.574219 5.074219 29.246094 4.695312 C 28.71875 4.367188 28.140625 4.058594 27.515625 3.773438 Z M 27.515625 3.773438 " fill-opacity="1" fill-rule="nonzero"/><path fill="#e9a6c7" d="M 29.523438 4.871094 C 29.855469 5.253906 30.179688 5.6875 30.492188 6.171875 C 30.980469 6.484375 31.417969 6.808594 31.800781 7.144531 C 31.488281 6.664062 31.160156 6.234375 30.824219 5.851562 C 30.433594 5.511719 30 5.183594 29.523438 4.871094 Z M 29.523438 4.871094 " fill-opacity="1" fill-rule="nonzero"/><path fill="#e9a6c7" d="M 33.710938 10.0625 C 33.695312 10.03125 33.679688 10.003906 33.664062 9.976562 C 33.679688 10.003906 33.695312 10.03125 33.710938 10.0625 Z M 33.710938 10.0625 " fill-opacity="1" fill-rule="nonzero"/><path fill="#e9a6c7" d="M 3.972656 9.070312 C 4.367188 8.765625 4.824219 8.46875 5.335938 8.183594 C 5.628906 7.519531 5.9375 6.910156 6.269531 6.363281 C 5.757812 6.671875 5.300781 6.992188 4.894531 7.324219 C 4.566406 7.855469 4.257812 8.441406 3.972656 9.070312 Z M 3.972656 9.070312 " fill-opacity="1" fill-rule="nonzero"/><path fill="#e9a6c7" d="M 5.636719 8.019531 C 6.222656 7.710938 6.871094 7.414062 7.582031 7.140625 C 7.855469 6.453125 8.148438 5.828125 8.453125 5.265625 C 7.769531 5.550781 7.136719 5.859375 6.566406 6.1875 C 6.238281 6.738281 5.925781 7.351562 5.636719 8.019531 Z M 5.636719 8.019531 " fill-opacity="1" fill-rule="nonzero"/><path fill="#e9a6c7" d="M 7.992188 6.984375 C 8.785156 6.695312 9.640625 6.429688 10.558594 6.199219 C 10.785156 5.507812 11.019531 4.878906 11.265625 4.320312 C 10.40625 4.546875 9.597656 4.8125 8.847656 5.105469 C 8.550781 5.667969 8.265625 6.292969 7.992188 6.984375 Z M 7.992188 6.984375 " fill-opacity="1" fill-rule="nonzero"/><path fill="#e9a6c7" d="M 11.082031 6.074219 C 12.074219 5.84375 13.121094 5.652344 14.214844 5.515625 C 14.347656 4.828125 14.484375 4.210938 14.625 3.660156 C 13.628906 3.792969 12.667969 3.972656 11.753906 4.195312 C 11.523438 4.753906 11.296875 5.378906 11.082031 6.074219 Z M 11.082031 6.074219 " fill-opacity="1" fill-rule="nonzero"/><path fill="#e9a6c7" d="M 18.316406 3.417969 C 17.261719 3.417969 16.210938 3.480469 15.183594 3.59375 C 15.0625 4.144531 14.945312 4.757812 14.828125 5.441406 C 15.96875 5.320312 17.136719 5.253906 18.3125 5.253906 C 18.3125 4.574219 18.316406 3.964844 18.316406 3.417969 Z M 18.316406 3.417969 " fill-opacity="1" fill-rule="nonzero"/><path fill="#e9a6c7" d="M 18.898438 3.421875 C 18.917969 3.96875 18.941406 4.578125 18.960938 5.257812 C 20.132812 5.277344 21.289062 5.363281 22.414062 5.5 C 22.285156 4.816406 22.152344 4.199219 22.015625 3.648438 C 20.996094 3.519531 19.953125 3.441406 18.898438 3.421875 Z M 18.898438 3.421875 " fill-opacity="1" fill-rule="nonzero"/><path fill="#e9a6c7" d="M 22.566406 3.726562 C 22.722656 4.277344 22.875 4.894531 23.023438 5.582031 C 24.09375 5.734375 25.121094 5.9375 26.089844 6.179688 C 25.863281 5.484375 25.628906 4.859375 25.386719 4.300781 C 24.488281 4.0625 23.546875 3.871094 22.566406 3.726562 Z M 22.566406 3.726562 " fill-opacity="1" fill-rule="nonzero"/><path fill="#e9a6c7" d="M 25.863281 4.429688 C 26.117188 4.988281 26.363281 5.617188 26.601562 6.3125 C 27.488281 6.550781 28.320312 6.820312 29.082031 7.113281 C 28.808594 6.425781 28.515625 5.800781 28.214844 5.238281 C 27.484375 4.9375 26.699219 4.667969 25.863281 4.429688 Z M 25.863281 4.429688 " fill-opacity="1" fill-rule="nonzero"/><path fill="#e9a6c7" d="M 28.597656 5.402344 C 28.90625 5.960938 29.203125 6.585938 29.480469 7.269531 C 30.164062 7.550781 30.785156 7.847656 31.34375 8.15625 C 31.054688 7.492188 30.742188 6.882812 30.414062 6.332031 C 29.867188 6.003906 29.257812 5.691406 28.597656 5.402344 Z M 28.597656 5.402344 " fill-opacity="1" fill-rule="nonzero"/><path fill="#e9a6c7" d="M 30.699219 6.507812 C 31.027344 7.054688 31.339844 7.660156 31.632812 8.320312 C 32.121094 8.605469 32.554688 8.902344 32.929688 9.203125 C 32.644531 8.578125 32.335938 8 32.007812 7.46875 C 31.625 7.140625 31.1875 6.816406 30.699219 6.507812 Z M 30.699219 6.507812 " fill-opacity="1" fill-rule="nonzero"/><path fill="#e9a6c7" d="M 1.945312 11.746094 C 1.980469 11.660156 2.015625 11.574219 2.050781 11.492188 C 2.011719 11.578125 1.976562 11.660156 1.945312 11.746094 Z M 1.945312 11.746094 " fill-opacity="1" fill-rule="nonzero"/><path fill="#e9a6c7" d="M 3.011719 11.703125 C 3.394531 11.460938 3.839844 11.226562 4.34375 11 C 4.578125 10.160156 4.847656 9.371094 5.144531 8.636719 C 4.632812 8.914062 4.179688 9.203125 3.785156 9.5 C 3.496094 10.1875 3.234375 10.925781 3.011719 11.703125 Z M 3.011719 11.703125 " fill-opacity="1" fill-rule="nonzero"/><path fill="#e9a6c7" d="M 4.640625 10.867188 C 5.226562 10.613281 5.882812 10.371094 6.605469 10.136719 C 6.839844 9.234375 7.105469 8.390625 7.398438 7.613281 C 6.683594 7.886719 6.03125 8.175781 5.445312 8.476562 C 5.148438 9.21875 4.878906 10.015625 4.640625 10.867188 Z M 4.640625 10.867188 " fill-opacity="1" fill-rule="nonzero"/><path fill="#e9a6c7" d="M 7.027344 10.003906 C 7.847656 9.753906 8.742188 9.519531 9.710938 9.304688 C 9.925781 8.359375 10.15625 7.484375 10.402344 6.683594 C 9.476562 6.914062 8.609375 7.175781 7.8125 7.460938 C 7.527344 8.242188 7.261719 9.09375 7.027344 10.003906 Z M 7.027344 10.003906 " fill-opacity="1" fill-rule="nonzero"/><path fill="#e9a6c7" d="M 10.273438 9.1875 C 11.34375 8.96875 12.484375 8.777344 13.6875 8.636719 C 13.828125 7.675781 13.972656 6.796875 14.121094 5.996094 C 13.007812 6.136719 11.945312 6.328125 10.9375 6.558594 C 10.699219 7.359375 10.476562 8.234375 10.273438 9.1875 Z M 10.273438 9.1875 " fill-opacity="1" fill-rule="nonzero"/><path fill="#e9a6c7" d="M 18.3125 5.730469 C 17.109375 5.734375 15.914062 5.800781 14.75 5.921875 C 14.621094 6.722656 14.496094 7.601562 14.375 8.558594 C 15.652344 8.429688 16.96875 8.359375 18.304688 8.355469 C 18.308594 7.402344 18.308594 6.527344 18.3125 5.730469 Z M 18.3125 5.730469 " fill-opacity="1" fill-rule="nonzero"/><path fill="#e9a6c7" d="M 18.972656 5.738281 C 18.996094 6.535156 19.019531 7.410156 19.039062 8.363281 C 20.367188 8.386719 21.671875 8.476562 22.929688 8.621094 C 22.792969 7.664062 22.652344 6.785156 22.503906 5.984375 C 21.355469 5.84375 20.171875 5.757812 18.972656 5.738281 Z M 18.972656 5.738281 " fill-opacity="1" fill-rule="nonzero"/><path fill="#e9a6c7" d="M 23.125 6.066406 C 23.289062 6.867188 23.449219 7.746094 23.601562 8.707031 C 24.777344 8.859375 25.890625 9.058594 26.929688 9.285156 C 26.71875 8.335938 26.484375 7.464844 26.242188 6.664062 C 25.257812 6.421875 24.21875 6.21875 23.125 6.066406 Z M 23.125 6.066406 " fill-opacity="1" fill-rule="nonzero"/><path fill="#e9a6c7" d="M 26.757812 6.796875 C 27.011719 7.59375 27.253906 8.464844 27.472656 9.40625 C 28.40625 9.625 29.269531 9.863281 30.058594 10.117188 C 29.820312 9.210938 29.554688 8.367188 29.265625 7.589844 C 28.496094 7.300781 27.660156 7.035156 26.757812 6.796875 Z M 26.757812 6.796875 " fill-opacity="1" fill-rule="nonzero"/><path fill="#e9a6c7" d="M 29.667969 7.746094 C 29.960938 8.515625 30.226562 9.351562 30.464844 10.25 C 31.15625 10.484375 31.78125 10.726562 32.339844 10.976562 C 32.105469 10.136719 31.835938 9.34375 31.535156 8.609375 C 30.976562 8.308594 30.355469 8.019531 29.667969 7.746094 Z M 29.667969 7.746094 " fill-opacity="1" fill-rule="nonzero"/><path fill="#e9a6c7" d="M 31.824219 8.769531 C 32.121094 9.496094 32.390625 10.277344 32.625 11.109375 C 33.101562 11.335938 33.519531 11.570312 33.882812 11.804688 C 33.660156 11.039062 33.402344 10.3125 33.117188 9.628906 C 32.742188 9.335938 32.3125 9.046875 31.824219 8.769531 Z M 31.824219 8.769531 " fill-opacity="1" fill-rule="nonzero"/><g clip-path="url(#02cfc34958)"><path fill="#e9a6c7" d="M 0.851562 15.824219 C 0.839844 15.867188 0.832031 15.910156 0.832031 15.953125 C 0.835938 15.910156 0.84375 15.867188 0.851562 15.824219 Z M 0.851562 15.824219 " fill-opacity="1" fill-rule="nonzero"/></g><path fill="#e9a6c7" d="M 1.410156 15.238281 C 1.613281 15.113281 1.867188 14.992188 2.167969 14.875 C 2.292969 14 2.464844 13.152344 2.675781 12.339844 C 2.359375 12.539062 2.09375 12.742188 1.875 12.945312 C 1.679688 13.683594 1.523438 14.449219 1.410156 15.238281 Z M 1.410156 15.238281 " fill-opacity="1" fill-rule="nonzero"/><path fill="#e9a6c7" d="M 2.351562 14.804688 C 2.722656 14.667969 3.152344 14.535156 3.640625 14.402344 C 3.777344 13.417969 3.964844 12.472656 4.191406 11.566406 C 3.691406 11.78125 3.25 12 2.867188 12.222656 C 2.652344 13.050781 2.480469 13.914062 2.351562 14.804688 Z M 2.351562 14.804688 " fill-opacity="1" fill-rule="nonzero"/><path fill="#e9a6c7" d="M 3.929688 14.328125 C 4.511719 14.175781 5.15625 14.03125 5.871094 13.890625 C 6.019531 12.792969 6.214844 11.746094 6.449219 10.753906 C 5.730469 10.976562 5.074219 11.207031 4.488281 11.441406 C 4.257812 12.359375 4.070312 13.324219 3.929688 14.324219 Z M 3.929688 14.328125 " fill-opacity="1" fill-rule="nonzero"/><path fill="#e9a6c7" d="M 6.296875 13.808594 C 7.121094 13.648438 8.027344 13.496094 9.011719 13.351562 C 9.160156 12.152344 9.351562 11.019531 9.570312 9.957031 C 8.597656 10.164062 7.699219 10.390625 6.875 10.628906 C 6.640625 11.632812 6.441406 12.695312 6.296875 13.808594 Z M 6.296875 13.808594 " fill-opacity="1" fill-rule="nonzero"/><path fill="#e9a6c7" d="M 13.59375 9.300781 C 12.371094 9.445312 11.21875 9.628906 10.136719 9.84375 C 9.921875 10.910156 9.734375 12.054688 9.585938 13.265625 C 10.699219 13.109375 11.894531 12.964844 13.179688 12.839844 C 13.300781 11.574219 13.441406 10.394531 13.59375 9.300781 Z M 13.59375 9.300781 " fill-opacity="1" fill-rule="nonzero"/><path fill="#e9a6c7" d="M 18.304688 9.023438 C 16.9375 9.023438 15.59375 9.097656 14.289062 9.226562 C 14.15625 10.320312 14.03125 11.503906 13.917969 12.773438 C 15.320312 12.65625 16.789062 12.574219 18.296875 12.574219 C 18.296875 11.296875 18.300781 10.117188 18.304688 9.023438 Z M 18.304688 9.023438 " fill-opacity="1" fill-rule="nonzero"/><path fill="#e9a6c7" d="M 19.054688 9.027344 C 19.078125 10.121094 19.105469 11.304688 19.128906 12.578125 C 20.621094 12.605469 22.0625 12.699219 23.433594 12.828125 C 23.3125 11.5625 23.171875 10.382812 23.023438 9.289062 C 21.742188 9.144531 20.414062 9.050781 19.054688 9.027344 Z M 19.054688 9.027344 " fill-opacity="1" fill-rule="nonzero"/><path fill="#e9a6c7" d="M 23.703125 9.371094 C 23.867188 10.460938 24.023438 11.640625 24.152344 12.898438 C 25.394531 13.03125 26.554688 13.179688 27.625 13.335938 C 27.476562 12.136719 27.285156 11 27.066406 9.9375 C 26.019531 9.71875 24.898438 9.527344 23.703125 9.371094 Z M 23.703125 9.371094 " fill-opacity="1" fill-rule="nonzero"/><path fill="#e9a6c7" d="M 27.613281 10.058594 C 27.839844 11.109375 28.03125 12.234375 28.179688 13.421875 C 29.128906 13.566406 29.996094 13.71875 30.789062 13.875 C 30.644531 12.777344 30.445312 11.726562 30.210938 10.734375 C 29.417969 10.496094 28.554688 10.265625 27.613281 10.058594 Z M 27.613281 10.058594 " fill-opacity="1" fill-rule="nonzero"/><path fill="#e9a6c7" d="M 30.621094 10.859375 C 30.855469 11.839844 31.050781 12.875 31.195312 13.957031 C 31.878906 14.097656 32.496094 14.242188 33.046875 14.390625 C 32.90625 13.402344 32.722656 12.453125 32.492188 11.546875 C 31.933594 11.308594 31.308594 11.082031 30.621094 10.859375 Z M 30.621094 10.859375 " fill-opacity="1" fill-rule="nonzero"/><path fill="#e9a6c7" d="M 32.773438 11.667969 C 33 12.5625 33.1875 13.496094 33.324219 14.46875 C 33.78125 14.597656 34.1875 14.726562 34.535156 14.863281 C 34.40625 13.988281 34.238281 13.136719 34.023438 12.320312 C 33.664062 12.097656 33.25 11.882812 32.773438 11.667969 Z M 32.773438 11.667969 " fill-opacity="1" fill-rule="nonzero"/><path fill="#e9a6c7" d="M 34.203125 12.4375 C 34.414062 13.238281 34.582031 14.074219 34.703125 14.933594 C 34.984375 15.050781 35.21875 15.167969 35.40625 15.289062 C 35.292969 14.515625 35.140625 13.757812 34.945312 13.03125 C 34.746094 12.832031 34.5 12.632812 34.203125 12.4375 Z M 34.203125 12.4375 " fill-opacity="1" fill-rule="nonzero"/><path fill="#e9a6c7" d="M 35.550781 14.179688 C 35.535156 14.042969 35.503906 13.902344 35.445312 13.757812 C 35.484375 13.898438 35.515625 14.039062 35.550781 14.179688 Z M 35.550781 14.179688 " fill-opacity="1" fill-rule="nonzero"/><path fill="#e9a6c7" d="M 35.554688 14.21875 C 35.582031 14.320312 35.605469 14.425781 35.628906 14.53125 C 35.605469 14.414062 35.578125 14.296875 35.550781 14.179688 C 35.550781 14.191406 35.554688 14.203125 35.554688 14.21875 Z M 35.554688 14.21875 " fill-opacity="1" fill-rule="nonzero"/><path fill="#e9a6c7" d="M 35.867188 15.785156 C 35.878906 15.851562 35.890625 15.921875 35.898438 15.992188 C 35.902344 15.925781 35.894531 15.855469 35.867188 15.785156 Z M 35.867188 15.785156 " fill-opacity="1" fill-rule="nonzero"/><g clip-path="url(#1610deefbb)"><path fill="#e9a6c7" d="M 0.671875 18.246094 C 0.691406 18.25 0.722656 18.253906 0.761719 18.257812 C 0.761719 18.246094 0.761719 18.238281 0.761719 18.230469 C 0.765625 18.230469 0.773438 18.226562 0.78125 18.226562 C 0.78125 18.238281 0.78125 18.25 0.78125 18.257812 C 0.820312 18.261719 0.859375 18.265625 0.890625 18.269531 C 0.890625 18.253906 0.890625 18.238281 0.890625 18.222656 C 0.949219 18.21875 1.015625 18.21875 1.09375 18.214844 C 1.097656 17.40625 1.148438 16.601562 1.242188 15.808594 C 1.179688 15.847656 1.121094 15.882812 1.070312 15.917969 C 1.09375 15.75 1.121094 15.582031 1.152344 15.417969 C 1.199219 15.378906 1.253906 15.339844 1.308594 15.300781 C 1.421875 14.527344 1.574219 13.773438 1.765625 13.050781 C 1.742188 13.078125 1.714844 13.105469 1.691406 13.132812 C 1.699219 13.058594 1.707031 12.980469 1.714844 12.902344 C 1.675781 13.011719 1.640625 13.121094 1.605469 13.230469 C 1.589844 13.246094 1.578125 13.265625 1.566406 13.28125 C 1.617188 13.121094 1.667969 12.964844 1.726562 12.8125 C 1.726562 12.804688 1.726562 12.792969 1.726562 12.785156 C 1.753906 12.75 1.785156 12.714844 1.8125 12.679688 C 1.792969 12.816406 1.773438 12.949219 1.742188 13.070312 C 1.878906 12.644531 2.027344 12.226562 2.1875 11.824219 C 2.226562 11.742188 2.257812 11.65625 2.289062 11.566406 C 2.296875 11.558594 2.300781 11.546875 2.304688 11.539062 C 2.199219 11.84375 2.097656 12.15625 2.003906 12.476562 C 2.226562 12.257812 2.496094 12.039062 2.820312 11.824219 C 3.039062 11.058594 3.296875 10.335938 3.582031 9.65625 C 3.324219 9.859375 3.09375 10.070312 2.894531 10.277344 C 2.90625 10.253906 2.921875 10.230469 2.933594 10.207031 C 2.914062 10.238281 2.894531 10.269531 2.875 10.300781 C 2.871094 10.304688 2.867188 10.308594 2.863281 10.3125 C 2.925781 10.195312 2.988281 10.082031 3.054688 9.96875 C 3.101562 9.898438 3.144531 9.828125 3.1875 9.753906 C 3.363281 9.578125 3.554688 9.402344 3.769531 9.230469 C 4.050781 8.605469 4.359375 8.027344 4.6875 7.5 C 4.65625 7.523438 4.628906 7.550781 4.601562 7.574219 C 4.675781 7.460938 4.757812 7.339844 4.839844 7.222656 C 4.859375 7.203125 4.875 7.1875 4.894531 7.171875 C 5.089844 6.875 5.292969 6.59375 5.496094 6.332031 C 5.628906 6.171875 5.761719 6.011719 5.90625 5.851562 C 5.894531 5.863281 5.882812 5.875 5.867188 5.886719 C 5.871094 5.882812 5.871094 5.882812 5.875 5.878906 C 5.511719 6.199219 5.191406 6.523438 4.910156 6.851562 C 4.84375 6.925781 4.78125 7.003906 4.71875 7.082031 C 4.734375 7.0625 4.746094 7.046875 4.761719 7.027344 C 4.4375 7.410156 4.125 7.832031 3.824219 8.292969 C 3.632812 8.539062 3.464844 8.789062 3.320312 9.03125 C 3.222656 9.179688 3.136719 9.328125 3.058594 9.472656 C 2.859375 9.808594 2.667969 10.160156 2.488281 10.527344 C 2.390625 10.722656 2.296875 10.925781 2.203125 11.132812 C 2.15625 11.238281 2.113281 11.339844 2.078125 11.445312 C 2.011719 11.605469 1.945312 11.769531 1.886719 11.933594 C 1.902344 11.871094 1.921875 11.808594 1.945312 11.746094 C 1.753906 12.234375 1.578125 12.742188 1.429688 13.269531 C 1.355469 13.433594 1.308594 13.597656 1.285156 13.753906 C 1.230469 13.886719 1.199219 14.023438 1.183594 14.152344 C 1.046875 14.695312 0.933594 15.253906 0.851562 15.824219 C 0.855469 15.808594 0.859375 15.792969 0.867188 15.777344 C 0.855469 15.851562 0.84375 15.925781 0.832031 15.996094 C 0.839844 16.0625 0.855469 16.128906 0.878906 16.1875 C 0.867188 16.3125 0.851562 16.4375 0.839844 16.5625 C 0.832031 16.542969 0.824219 16.527344 0.816406 16.507812 C 0.828125 16.378906 0.839844 16.25 0.855469 16.121094 C 0.804688 16.199219 0.777344 16.28125 0.78125 16.355469 C 0.707031 16.976562 0.671875 17.609375 0.667969 18.242188 C 0.667969 18.242188 0.667969 18.242188 0.671875 18.242188 C 0.671875 18.242188 0.671875 18.246094 0.671875 18.246094 Z M 0.921875 16.042969 C 0.945312 15.882812 0.972656 15.722656 1 15.5625 C 1.007812 15.554688 1.015625 15.542969 1.027344 15.53125 C 1 15.695312 0.972656 15.855469 0.949219 16.019531 C 0.941406 16.027344 0.929688 16.035156 0.921875 16.042969 Z M 2.292969 11.566406 C 2.320312 11.480469 2.347656 11.390625 2.378906 11.296875 C 2.289062 11.480469 2.207031 11.667969 2.125 11.859375 C 2.148438 11.78125 2.175781 11.707031 2.203125 11.628906 C 2.269531 11.480469 2.339844 11.332031 2.410156 11.1875 C 2.449219 11.054688 2.488281 10.917969 2.53125 10.773438 C 2.550781 10.722656 2.574219 10.667969 2.59375 10.617188 C 2.585938 10.628906 2.578125 10.640625 2.566406 10.652344 C 2.582031 10.613281 2.59375 10.570312 2.605469 10.53125 C 2.566406 10.605469 2.527344 10.683594 2.484375 10.757812 C 2.457031 10.800781 2.425781 10.839844 2.398438 10.882812 C 2.480469 10.71875 2.566406 10.558594 2.652344 10.398438 C 2.65625 10.386719 2.660156 10.371094 2.664062 10.359375 C 2.699219 10.316406 2.730469 10.269531 2.765625 10.226562 C 2.792969 10.167969 2.820312 10.109375 2.847656 10.050781 C 2.929688 9.910156 3.015625 9.773438 3.101562 9.636719 C 3.0625 9.710938 3.027344 9.785156 2.992188 9.859375 C 2.914062 9.988281 2.835938 10.117188 2.761719 10.25 C 2.691406 10.449219 2.632812 10.636719 2.574219 10.820312 C 2.484375 11.042969 2.398438 11.269531 2.316406 11.503906 C 2.308594 11.523438 2.300781 11.542969 2.292969 11.566406 Z M 4.058594 8.007812 C 4.144531 7.90625 4.238281 7.804688 4.335938 7.707031 C 4.289062 7.757812 4.242188 7.816406 4.199219 7.871094 C 4.152344 7.945312 4.109375 8.019531 4.066406 8.09375 C 4.019531 8.144531 3.976562 8.191406 3.933594 8.238281 C 3.957031 8.195312 3.984375 8.152344 4.011719 8.105469 C 3.855469 8.300781 3.707031 8.507812 3.558594 8.71875 C 3.582031 8.679688 3.605469 8.640625 3.628906 8.601562 C 3.589844 8.652344 3.550781 8.703125 3.515625 8.753906 C 3.691406 8.492188 3.871094 8.246094 4.058594 8.007812 Z M 1.316406 13.683594 C 1.308594 13.699219 1.300781 13.714844 1.296875 13.730469 C 1.390625 13.390625 1.496094 13.058594 1.609375 12.738281 C 1.5625 12.878906 1.519531 13.023438 1.476562 13.171875 C 1.480469 13.167969 1.480469 13.164062 1.480469 13.160156 C 1.40625 13.390625 1.335938 13.625 1.273438 13.863281 C 1.269531 13.902344 1.265625 13.945312 1.265625 13.984375 C 1.230469 14.117188 1.199219 14.253906 1.171875 14.390625 C 1.171875 14.351562 1.171875 14.3125 1.171875 14.273438 C 1.21875 14.074219 1.265625 13.878906 1.316406 13.683594 Z M 1.316406 13.683594 " fill-opacity="1" fill-rule="nonzero"/></g><g clip-path="url(#60af0490cd)"><path fill="#e9a6c7" d="M 0.667969 18.246094 C 0.667969 18.246094 0.667969 18.242188 0.667969 18.242188 C 0.664062 18.242188 0.664062 18.246094 0.667969 18.246094 Z M 0.667969 18.246094 " fill-opacity="1" fill-rule="nonzero"/></g><path fill="#e9a6c7" d="M 1.1875 18.210938 C 1.390625 18.207031 1.632812 18.199219 1.921875 18.195312 C 1.929688 17.273438 1.984375 16.355469 2.09375 15.453125 C 1.796875 15.550781 1.546875 15.652344 1.339844 15.757812 C 1.242188 16.566406 1.191406 17.386719 1.1875 18.210938 Z M 1.1875 18.210938 " fill-opacity="1" fill-rule="nonzero"/><path fill="#e9a6c7" d="M 2.277344 15.394531 C 2.167969 16.3125 2.109375 17.25 2.101562 18.191406 C 2.46875 18.1875 2.890625 18.179688 3.367188 18.171875 C 3.375 17.121094 3.4375 16.078125 3.554688 15.058594 C 3.070312 15.167969 2.644531 15.28125 2.277344 15.394531 Z M 2.277344 15.394531 " fill-opacity="1" fill-rule="nonzero"/><path fill="#e9a6c7" d="M 3.65625 18.167969 C 4.230469 18.164062 4.867188 18.15625 5.574219 18.148438 C 5.582031 16.957031 5.652344 15.773438 5.78125 14.621094 C 5.066406 14.742188 4.425781 14.867188 3.847656 14.992188 C 3.726562 16.035156 3.664062 17.097656 3.65625 18.167969 Z M 3.65625 18.167969 " fill-opacity="1" fill-rule="nonzero"/><path fill="#e9a6c7" d="M 5.996094 18.144531 C 6.816406 18.136719 7.71875 18.128906 8.699219 18.121094 C 8.707031 16.773438 8.785156 15.445312 8.917969 14.160156 C 7.933594 14.289062 7.03125 14.417969 6.203125 14.550781 C 6.074219 15.726562 6.003906 16.929688 5.996094 18.144531 Z M 5.996094 18.144531 " fill-opacity="1" fill-rule="nonzero"/><path fill="#e9a6c7" d="M 9.273438 18.117188 C 10.386719 18.109375 11.589844 18.101562 12.886719 18.09375 C 12.894531 16.578125 12.980469 15.109375 13.097656 13.707031 C 11.808594 13.820312 10.609375 13.953125 9.496094 14.089844 C 9.359375 15.394531 9.28125 16.746094 9.273438 18.117188 Z M 9.273438 18.117188 " fill-opacity="1" fill-rule="nonzero"/><path fill="#e9a6c7" d="M 13.84375 13.648438 C 13.734375 15.058594 13.648438 16.546875 13.640625 18.089844 C 15.085938 18.078125 16.636719 18.066406 18.289062 18.0625 C 18.289062 16.421875 18.292969 14.886719 18.296875 13.453125 C 16.757812 13.453125 15.265625 13.535156 13.84375 13.648438 Z M 13.84375 13.648438 " fill-opacity="1" fill-rule="nonzero"/><path fill="#e9a6c7" d="M 19.144531 13.457031 C 19.171875 14.894531 19.207031 16.429688 19.214844 18.066406 C 20.820312 18.074219 22.320312 18.082031 23.722656 18.09375 C 23.714844 16.574219 23.628906 15.101562 23.511719 13.699219 C 22.128906 13.578125 20.664062 13.484375 19.144531 13.457031 Z M 19.144531 13.457031 " fill-opacity="1" fill-rule="nonzero"/><path fill="#e9a6c7" d="M 27.71875 14.148438 C 26.644531 14.011719 25.484375 13.878906 24.234375 13.761719 C 24.359375 15.152344 24.445312 16.605469 24.453125 18.097656 C 25.707031 18.105469 26.867188 18.113281 27.941406 18.121094 C 27.933594 16.769531 27.855469 15.4375 27.71875 14.148438 Z M 27.71875 14.148438 " fill-opacity="1" fill-rule="nonzero"/><path fill="#e9a6c7" d="M 30.882812 14.609375 C 30.089844 14.476562 29.222656 14.347656 28.273438 14.222656 C 28.410156 15.488281 28.484375 16.796875 28.492188 18.125 C 29.4375 18.132812 30.300781 18.140625 31.085938 18.148438 C 31.082031 16.953125 31.007812 15.765625 30.882812 14.609375 Z M 30.882812 14.609375 " fill-opacity="1" fill-rule="nonzero"/><path fill="#e9a6c7" d="M 33.128906 15.046875 C 32.582031 14.921875 31.96875 14.800781 31.285156 14.679688 C 31.414062 15.816406 31.484375 16.976562 31.488281 18.152344 C 32.164062 18.160156 32.773438 18.164062 33.316406 18.171875 C 33.3125 17.117188 33.246094 16.070312 33.128906 15.046875 Z M 33.128906 15.046875 " fill-opacity="1" fill-rule="nonzero"/><path fill="#e9a6c7" d="M 34.78125 18.195312 C 34.773438 17.269531 34.714844 16.347656 34.609375 15.445312 C 34.261719 15.328125 33.863281 15.21875 33.40625 15.109375 C 33.523438 16.117188 33.585938 17.144531 33.589844 18.175781 C 34.042969 18.183594 34.4375 18.1875 34.78125 18.195312 Z M 34.78125 18.195312 " fill-opacity="1" fill-rule="nonzero"/><path fill="#e9a6c7" d="M 35.472656 15.800781 C 35.285156 15.699219 35.054688 15.597656 34.777344 15.5 C 34.882812 16.390625 34.941406 17.289062 34.945312 18.199219 C 35.214844 18.203125 35.4375 18.207031 35.625 18.214844 C 35.617188 17.402344 35.566406 16.597656 35.472656 15.800781 Z M 35.472656 15.800781 " fill-opacity="1" fill-rule="nonzero"/><g clip-path="url(#19ee5a87ee)"><path fill="#e9a6c7" d="M 35.898438 16.160156 C 35.910156 16.261719 35.921875 16.363281 35.929688 16.464844 C 35.925781 16.480469 35.917969 16.5 35.910156 16.515625 C 35.898438 16.386719 35.886719 16.257812 35.871094 16.132812 C 35.878906 16.101562 35.886719 16.070312 35.894531 16.035156 C 35.878906 15.9375 35.863281 15.835938 35.847656 15.738281 C 35.855469 15.753906 35.863281 15.769531 35.867188 15.785156 C 35.804688 15.359375 35.722656 14.941406 35.628906 14.53125 C 35.683594 14.789062 35.734375 15.050781 35.777344 15.316406 C 35.71875 14.980469 35.644531 14.648438 35.566406 14.320312 C 35.519531 14.117188 35.472656 13.921875 35.421875 13.722656 C 35.433594 13.765625 35.445312 13.808594 35.457031 13.847656 C 35.441406 13.691406 35.40625 13.523438 35.335938 13.351562 C 35.164062 12.742188 34.957031 12.15625 34.726562 11.597656 C 34.753906 11.65625 34.773438 11.71875 34.796875 11.777344 C 34.753906 11.675781 34.714844 11.570312 34.671875 11.46875 C 34.660156 11.445312 34.648438 11.417969 34.636719 11.394531 C 34.617188 11.34375 34.597656 11.292969 34.578125 11.242188 C 34.550781 11.1875 34.527344 11.132812 34.503906 11.078125 C 34.507812 11.089844 34.511719 11.101562 34.519531 11.113281 C 34.28125 10.578125 34.019531 10.074219 33.742188 9.601562 C 33.644531 9.414062 33.535156 9.226562 33.414062 9.035156 C 33.296875 8.835938 33.164062 8.632812 33.011719 8.429688 C 32.769531 8.058594 32.515625 7.707031 32.257812 7.386719 C 32.15625 7.253906 32.050781 7.125 31.945312 7 C 31.859375 6.894531 31.765625 6.785156 31.671875 6.679688 C 31.417969 6.382812 31.132812 6.085938 30.8125 5.792969 C 30.53125 5.492188 30.246094 5.21875 29.957031 4.976562 C 29.851562 4.882812 29.746094 4.792969 29.640625 4.710938 C 29.257812 4.386719 28.835938 4.074219 28.375 3.773438 C 28.6875 4.019531 29.003906 4.304688 29.3125 4.640625 C 29.777344 4.945312 30.203125 5.261719 30.582031 5.589844 C 30.65625 5.667969 30.730469 5.746094 30.796875 5.824219 C 30.886719 5.902344 30.976562 5.984375 31.066406 6.066406 C 31.050781 6.054688 31.039062 6.042969 31.023438 6.03125 C 31.070312 6.082031 31.117188 6.136719 31.160156 6.191406 C 31.089844 6.121094 31.019531 6.058594 30.949219 5.992188 C 31.207031 6.292969 31.441406 6.589844 31.652344 6.878906 C 31.710938 6.941406 31.769531 7 31.828125 7.0625 C 31.863281 7.113281 31.898438 7.164062 31.929688 7.214844 C 31.875 7.15625 31.820312 7.09375 31.761719 7.035156 C 31.953125 7.308594 32.128906 7.574219 32.300781 7.828125 C 32.324219 7.859375 32.347656 7.890625 32.375 7.921875 C 32.390625 7.953125 32.410156 7.980469 32.425781 8.011719 C 32.414062 7.996094 32.402344 7.976562 32.386719 7.960938 C 32.410156 7.996094 32.433594 8.03125 32.457031 8.066406 C 32.691406 8.472656 32.914062 8.90625 33.121094 9.363281 C 33.273438 9.492188 33.414062 9.625 33.542969 9.753906 C 33.5625 9.789062 33.582031 9.820312 33.601562 9.851562 C 33.605469 9.855469 33.605469 9.859375 33.605469 9.863281 C 33.675781 9.984375 33.746094 10.105469 33.8125 10.230469 C 33.777344 10.175781 33.746094 10.117188 33.710938 10.0625 C 33.75 10.128906 33.785156 10.195312 33.820312 10.261719 C 33.667969 10.101562 33.496094 9.941406 33.304688 9.785156 C 33.589844 10.457031 33.84375 11.171875 34.0625 11.929688 C 34.363281 12.140625 34.617188 12.355469 34.820312 12.570312 C 34.808594 12.539062 34.800781 12.511719 34.792969 12.480469 C 34.867188 12.695312 34.941406 12.910156 35.007812 13.132812 C 34.964844 12.996094 34.941406 12.84375 34.917969 12.679688 C 34.820312 12.417969 34.71875 12.164062 34.613281 11.914062 C 34.589844 11.84375 34.566406 11.773438 34.542969 11.703125 C 34.648438 11.941406 34.75 12.183594 34.84375 12.429688 C 34.871094 12.511719 34.894531 12.597656 34.917969 12.679688 C 34.949219 12.714844 34.976562 12.75 35.003906 12.785156 C 35.007812 12.820312 35.011719 12.855469 35.015625 12.890625 C 35.054688 13.003906 35.09375 13.121094 35.132812 13.238281 C 35.121094 13.222656 35.109375 13.210938 35.097656 13.195312 C 35.074219 13.121094 35.046875 13.050781 35.023438 12.980469 C 35.039062 13.132812 35.058594 13.28125 35.09375 13.414062 C 35.136719 13.554688 35.179688 13.703125 35.21875 13.847656 C 35.328125 14.339844 35.421875 14.839844 35.496094 15.351562 C 35.519531 15.371094 35.546875 15.390625 35.570312 15.410156 C 35.597656 15.574219 35.625 15.742188 35.652344 15.910156 C 35.621094 15.890625 35.59375 15.871094 35.5625 15.851562 C 35.65625 16.632812 35.703125 17.421875 35.710938 18.21875 C 35.753906 18.21875 35.792969 18.21875 35.828125 18.222656 C 35.828125 18.238281 35.828125 18.253906 35.828125 18.269531 C 35.855469 18.265625 35.890625 18.261719 35.929688 18.261719 C 35.929688 18.25 35.929688 18.238281 35.929688 18.226562 C 35.9375 18.226562 35.945312 18.226562 35.953125 18.226562 C 35.953125 18.238281 35.953125 18.25 35.953125 18.257812 C 35.992188 18.253906 36.027344 18.253906 36.050781 18.25 C 36.050781 18.246094 36.050781 18.242188 36.050781 18.238281 C 36.054688 18.238281 36.058594 18.242188 36.058594 18.242188 C 36.054688 17.621094 36.019531 17 35.949219 16.386719 C 35.957031 16.316406 35.941406 16.234375 35.898438 16.160156 Z M 33.472656 9.191406 C 33.402344 9.082031 33.328125 8.972656 33.253906 8.867188 C 33.207031 8.785156 33.160156 8.707031 33.113281 8.628906 C 33.1875 8.734375 33.257812 8.835938 33.328125 8.941406 C 33.378906 9.023438 33.425781 9.109375 33.472656 9.191406 Z M 32.441406 7.753906 C 32.464844 7.785156 32.492188 7.8125 32.515625 7.84375 C 32.511719 7.832031 32.503906 7.824219 32.496094 7.8125 C 32.546875 7.863281 32.59375 7.917969 32.640625 7.96875 C 32.660156 8.007812 32.683594 8.042969 32.707031 8.078125 C 32.816406 8.21875 32.925781 8.363281 33.03125 8.515625 C 32.957031 8.421875 32.882812 8.332031 32.800781 8.242188 C 32.800781 8.242188 32.800781 8.238281 32.796875 8.238281 C 32.757812 8.191406 32.710938 8.144531 32.667969 8.09375 C 32.648438 8.066406 32.632812 8.035156 32.613281 8.003906 C 32.464844 7.820312 32.320312 7.648438 32.171875 7.480469 C 32.265625 7.570312 32.355469 7.660156 32.441406 7.753906 Z M 34.226562 10.859375 C 34.191406 10.769531 34.152344 10.679688 34.117188 10.59375 C 34.101562 10.574219 34.082031 10.550781 34.066406 10.53125 C 34.046875 10.476562 34.027344 10.417969 34.007812 10.359375 C 33.957031 10.269531 33.90625 10.183594 33.855469 10.09375 C 33.886719 10.128906 33.914062 10.167969 33.945312 10.203125 C 33.941406 10.195312 33.941406 10.191406 33.9375 10.1875 C 33.945312 10.199219 33.953125 10.214844 33.960938 10.230469 C 33.910156 10.089844 33.855469 9.945312 33.792969 9.796875 C 33.882812 9.976562 33.972656 10.160156 34.058594 10.347656 C 34.0625 10.351562 34.0625 10.355469 34.066406 10.359375 C 34.082031 10.410156 34.101562 10.460938 34.117188 10.507812 C 34.164062 10.597656 34.210938 10.6875 34.261719 10.777344 C 34.25 10.765625 34.238281 10.75 34.230469 10.734375 C 34.253906 10.792969 34.277344 10.851562 34.300781 10.910156 C 34.253906 10.820312 34.207031 10.726562 34.160156 10.636719 C 34.183594 10.710938 34.203125 10.785156 34.226562 10.859375 Z M 35.210938 13.089844 C 35.226562 13.117188 35.242188 13.148438 35.257812 13.175781 C 35.308594 13.335938 35.359375 13.496094 35.40625 13.660156 C 35.390625 13.632812 35.378906 13.605469 35.363281 13.582031 C 35.316406 13.414062 35.265625 13.25 35.210938 13.089844 Z M 35.683594 15.507812 C 35.691406 15.519531 35.699219 15.527344 35.710938 15.539062 C 35.738281 15.699219 35.761719 15.859375 35.785156 16.023438 C 35.777344 16.015625 35.769531 16.007812 35.761719 16 C 35.738281 15.835938 35.710938 15.671875 35.683594 15.507812 Z M 35.683594 15.507812 " fill-opacity="1" fill-rule="nonzero"/></g><path fill="#e9a6c7" d="M 2.128906 21.527344 C 2.011719 20.632812 1.941406 19.71875 1.925781 18.796875 C 1.636719 18.78125 1.390625 18.765625 1.191406 18.75 C 1.207031 19.574219 1.265625 20.390625 1.371094 21.195312 C 1.578125 21.308594 1.828125 21.417969 2.128906 21.527344 Z M 2.128906 21.527344 " fill-opacity="1" fill-rule="nonzero"/><path fill="#e9a6c7" d="M 3.59375 21.960938 C 3.464844 20.945312 3.390625 19.90625 3.371094 18.859375 C 2.894531 18.839844 2.472656 18.824219 2.105469 18.804688 C 2.121094 19.746094 2.191406 20.679688 2.308594 21.59375 C 2.679688 21.71875 3.109375 21.839844 3.59375 21.960938 Z M 3.59375 21.960938 " fill-opacity="1" fill-rule="nonzero"/><path fill="#e9a6c7" d="M 5.824219 22.433594 C 5.683594 21.292969 5.601562 20.117188 5.578125 18.925781 C 4.871094 18.90625 4.234375 18.886719 3.660156 18.867188 C 3.679688 19.9375 3.753906 20.996094 3.886719 22.03125 C 4.464844 22.167969 5.109375 22.304688 5.824219 22.433594 Z M 5.824219 22.433594 " fill-opacity="1" fill-rule="nonzero"/><path fill="#e9a6c7" d="M 8.960938 22.933594 C 8.816406 21.660156 8.726562 20.34375 8.703125 19 C 7.722656 18.980469 6.820312 18.957031 6 18.9375 C 6.019531 20.148438 6.105469 21.347656 6.246094 22.507812 C 7.070312 22.652344 7.976562 22.796875 8.960938 22.933594 Z M 8.960938 22.933594 " fill-opacity="1" fill-rule="nonzero"/><path fill="#e9a6c7" d="M 13.136719 23.414062 C 13.011719 22.039062 12.914062 20.585938 12.890625 19.082031 C 11.59375 19.058594 10.390625 19.035156 9.277344 19.015625 C 9.300781 20.382812 9.390625 21.722656 9.535156 23.011719 C 10.648438 23.15625 11.847656 23.296875 13.136719 23.414062 Z M 13.136719 23.414062 " fill-opacity="1" fill-rule="nonzero"/><path fill="#e9a6c7" d="M 18.296875 23.675781 C 18.292969 22.273438 18.292969 20.769531 18.289062 19.160156 C 16.640625 19.160156 15.089844 19.121094 13.644531 19.09375 C 13.667969 20.625 13.761719 22.089844 13.878906 23.476562 C 15.292969 23.59375 16.773438 23.675781 18.296875 23.675781 Z M 18.296875 23.675781 " fill-opacity="1" fill-rule="nonzero"/><path fill="#e9a6c7" d="M 19.136719 23.667969 C 20.644531 23.644531 22.097656 23.546875 23.472656 23.425781 C 23.597656 22.046875 23.695312 20.59375 23.71875 19.085938 C 22.316406 19.109375 20.8125 19.136719 19.210938 19.15625 C 19.191406 20.761719 19.164062 22.265625 19.136719 23.667969 Z M 19.136719 23.667969 " fill-opacity="1" fill-rule="nonzero"/><path fill="#e9a6c7" d="M 24.199219 23.355469 C 25.445312 23.234375 26.605469 23.09375 27.679688 22.945312 C 27.824219 21.671875 27.914062 20.351562 27.9375 19.003906 C 26.863281 19.023438 25.699219 19.046875 24.449219 19.070312 C 24.425781 20.554688 24.328125 21.988281 24.199219 23.355469 Z M 24.199219 23.355469 " fill-opacity="1" fill-rule="nonzero"/><path fill="#e9a6c7" d="M 31.082031 18.929688 C 30.292969 18.949219 29.429688 18.96875 28.488281 18.992188 C 28.464844 20.3125 28.375 21.613281 28.230469 22.867188 C 29.179688 22.730469 30.046875 22.589844 30.839844 22.445312 C 30.980469 21.300781 31.0625 20.121094 31.082031 18.925781 Z M 31.082031 18.929688 " fill-opacity="1" fill-rule="nonzero"/><path fill="#e9a6c7" d="M 33.3125 18.859375 C 32.769531 18.878906 32.160156 18.898438 31.484375 18.917969 C 31.464844 20.089844 31.382812 21.246094 31.246094 22.371094 C 31.925781 22.238281 32.542969 22.109375 33.089844 21.972656 C 33.21875 20.953125 33.292969 19.910156 33.3125 18.859375 Z M 33.3125 18.859375 " fill-opacity="1" fill-rule="nonzero"/><path fill="#e9a6c7" d="M 34.574219 21.539062 C 34.691406 20.640625 34.757812 19.722656 34.777344 18.796875 C 34.433594 18.816406 34.039062 18.832031 33.585938 18.847656 C 33.566406 19.882812 33.492188 20.902344 33.367188 21.902344 C 33.824219 21.785156 34.226562 21.664062 34.574219 21.539062 Z M 34.574219 21.539062 " fill-opacity="1" fill-rule="nonzero"/><path fill="#e9a6c7" d="M 35.621094 18.742188 C 35.4375 18.757812 35.210938 18.773438 34.945312 18.789062 C 34.929688 19.695312 34.863281 20.59375 34.746094 21.476562 C 35.023438 21.367188 35.257812 21.261719 35.441406 21.148438 C 35.546875 20.355469 35.605469 19.550781 35.621094 18.742188 Z M 35.621094 18.742188 " fill-opacity="1" fill-rule="nonzero"/><g clip-path="url(#924e625e70)"><path fill="#e9a6c7" d="M 36.058594 18.652344 C 36.058594 18.65625 36.058594 18.664062 36.058594 18.667969 C 36.0625 18.660156 36.0625 18.65625 36.058594 18.652344 Z M 36.058594 18.652344 " fill-opacity="1" fill-rule="nonzero"/></g><g clip-path="url(#3aeb578ea7)"><path fill="#e9a6c7" d="M 36.046875 18.675781 C 36.046875 18.667969 36.046875 18.65625 36.046875 18.644531 C 36.023438 18.632812 35.988281 18.625 35.949219 18.617188 C 35.949219 18.644531 35.949219 18.675781 35.949219 18.703125 C 35.941406 18.703125 35.933594 18.707031 35.925781 18.707031 C 35.929688 18.675781 35.929688 18.644531 35.929688 18.613281 C 35.890625 18.605469 35.855469 18.597656 35.828125 18.589844 C 35.828125 18.632812 35.824219 18.675781 35.824219 18.722656 C 35.789062 18.726562 35.75 18.730469 35.707031 18.734375 C 35.691406 19.527344 35.632812 20.316406 35.53125 21.09375 C 35.558594 21.074219 35.585938 21.054688 35.613281 21.03125 C 35.585938 21.203125 35.554688 21.371094 35.523438 21.535156 C 35.503906 21.554688 35.480469 21.574219 35.460938 21.589844 C 35.390625 22.019531 35.3125 22.441406 35.21875 22.859375 C 35.164062 23.050781 35.109375 23.238281 35.054688 23.425781 C 35.015625 23.5625 34.992188 23.710938 34.972656 23.867188 C 34.988281 23.832031 35 23.792969 35.011719 23.753906 C 35.027344 23.742188 35.039062 23.726562 35.050781 23.710938 C 35.023438 23.792969 34.992188 23.878906 34.960938 23.960938 C 34.957031 24.015625 34.949219 24.070312 34.941406 24.128906 C 34.914062 24.164062 34.886719 24.199219 34.855469 24.234375 C 34.851562 24.25 34.847656 24.265625 34.84375 24.277344 C 34.746094 24.523438 34.648438 24.765625 34.542969 25 C 34.566406 24.933594 34.589844 24.863281 34.613281 24.792969 C 34.699219 24.585938 34.785156 24.378906 34.867188 24.164062 C 34.890625 24 34.921875 23.84375 34.96875 23.703125 C 34.894531 23.925781 34.820312 24.148438 34.742188 24.363281 C 34.539062 24.582031 34.289062 24.800781 33.992188 25.011719 C 33.769531 25.757812 33.507812 26.464844 33.21875 27.125 C 33.390625 26.980469 33.546875 26.832031 33.6875 26.6875 C 33.660156 26.738281 33.632812 26.789062 33.601562 26.839844 C 33.636719 26.785156 33.667969 26.730469 33.699219 26.675781 C 33.699219 26.675781 33.703125 26.671875 33.703125 26.671875 C 33.648438 26.765625 33.597656 26.859375 33.542969 26.953125 C 33.535156 26.96875 33.527344 26.980469 33.519531 26.996094 C 33.503906 27.019531 33.488281 27.046875 33.472656 27.070312 C 33.453125 27.109375 33.429688 27.148438 33.40625 27.1875 C 33.40625 27.1875 33.40625 27.1875 33.40625 27.191406 C 33.40625 27.1875 33.40625 27.1875 33.40625 27.183594 C 33.40625 27.1875 33.40625 27.1875 33.402344 27.191406 C 33.289062 27.304688 33.164062 27.421875 33.03125 27.535156 C 32.855469 27.90625 32.671875 28.261719 32.480469 28.601562 C 32.425781 28.679688 32.371094 28.757812 32.3125 28.839844 C 32.351562 28.792969 32.390625 28.742188 32.425781 28.695312 C 32.410156 28.726562 32.390625 28.753906 32.375 28.785156 C 32.324219 28.847656 32.273438 28.910156 32.222656 28.972656 C 32.050781 29.222656 31.871094 29.488281 31.675781 29.761719 C 31.957031 29.46875 32.242188 29.15625 32.519531 28.816406 C 32.605469 28.726562 32.6875 28.636719 32.765625 28.546875 C 32.71875 28.609375 32.667969 28.675781 32.617188 28.738281 C 32.574219 28.804688 32.535156 28.875 32.488281 28.941406 C 32.445312 28.992188 32.394531 29.042969 32.347656 29.09375 C 32.375 29.054688 32.402344 29.011719 32.425781 28.96875 C 32.320312 29.097656 32.214844 29.222656 32.105469 29.339844 C 32.039062 29.40625 31.972656 29.46875 31.902344 29.535156 C 31.878906 29.570312 31.851562 29.605469 31.828125 29.640625 C 31.738281 29.734375 31.652344 29.824219 31.5625 29.914062 C 31.558594 29.921875 31.554688 29.925781 31.550781 29.933594 C 31.601562 29.859375 31.652344 29.785156 31.703125 29.710938 C 31.316406 30.046875 30.878906 30.371094 30.390625 30.6875 C 30.078125 31.15625 29.753906 31.578125 29.421875 31.949219 C 29.859375 31.660156 30.257812 31.363281 30.617188 31.058594 C 30.539062 31.144531 30.453125 31.230469 30.371094 31.316406 C 30.019531 31.609375 29.632812 31.898438 29.214844 32.171875 C 28.90625 32.492188 28.59375 32.769531 28.28125 33.003906 C 28.738281 32.707031 29.160156 32.394531 29.546875 32.074219 C 29.683594 31.964844 29.824219 31.847656 29.960938 31.722656 C 30.214844 31.511719 30.464844 31.277344 30.710938 31.019531 C 30.996094 30.757812 31.257812 30.492188 31.492188 30.226562 C 31.617188 30.089844 31.734375 29.957031 31.847656 29.820312 C 31.984375 29.664062 32.121094 29.496094 32.253906 29.324219 C 32.480469 29.042969 32.703125 28.738281 32.917969 28.417969 C 33.054688 28.234375 33.179688 28.046875 33.289062 27.867188 C 33.429688 27.65625 33.550781 27.453125 33.65625 27.246094 C 33.9375 26.785156 34.199219 26.289062 34.441406 25.761719 C 34.421875 25.800781 34.402344 25.84375 34.378906 25.886719 C 34.421875 25.800781 34.460938 25.714844 34.503906 25.628906 C 34.519531 25.589844 34.535156 25.550781 34.546875 25.511719 C 34.566406 25.476562 34.582031 25.441406 34.597656 25.40625 C 34.632812 25.328125 34.664062 25.25 34.699219 25.171875 C 34.683594 25.207031 34.671875 25.242188 34.65625 25.277344 C 34.890625 24.726562 35.101562 24.148438 35.28125 23.542969 C 35.351562 23.371094 35.390625 23.199219 35.410156 23.035156 C 35.464844 22.824219 35.515625 22.605469 35.5625 22.390625 C 35.644531 22.058594 35.71875 21.722656 35.78125 21.378906 C 35.734375 21.644531 35.6875 21.90625 35.632812 22.167969 C 35.710938 21.828125 35.777344 21.484375 35.835938 21.132812 C 35.828125 21.152344 35.820312 21.167969 35.8125 21.183594 C 35.832031 21.074219 35.851562 20.964844 35.867188 20.851562 C 35.863281 20.820312 35.855469 20.789062 35.847656 20.757812 C 35.863281 20.628906 35.878906 20.5 35.894531 20.371094 C 35.898438 20.390625 35.90625 20.410156 35.910156 20.429688 C 35.898438 20.539062 35.886719 20.648438 35.871094 20.753906 C 35.917969 20.671875 35.933594 20.585938 35.925781 20.507812 C 36.003906 19.902344 36.046875 19.285156 36.058594 18.667969 C 36.054688 18.671875 36.050781 18.671875 36.046875 18.675781 Z M 33.253906 27.839844 C 33.328125 27.734375 33.398438 27.625 33.472656 27.511719 C 33.425781 27.597656 33.375 27.679688 33.328125 27.765625 C 33.257812 27.867188 33.1875 27.972656 33.117188 28.074219 C 33.164062 27.996094 33.207031 27.917969 33.253906 27.839844 Z M 31.164062 30.515625 C 31.113281 30.570312 31.066406 30.625 31.019531 30.679688 C 30.949219 30.75 30.875 30.816406 30.800781 30.878906 C 30.847656 30.828125 30.890625 30.777344 30.933594 30.726562 C 31.011719 30.65625 31.085938 30.585938 31.164062 30.515625 Z M 33.636719 27.207031 C 33.714844 27.039062 33.785156 26.875 33.847656 26.714844 C 33.851562 26.703125 33.855469 26.695312 33.859375 26.683594 C 33.859375 26.6875 33.855469 26.6875 33.855469 26.691406 C 33.867188 26.664062 33.875 26.636719 33.886719 26.605469 C 33.855469 26.664062 33.824219 26.714844 33.789062 26.769531 C 33.769531 26.792969 33.753906 26.816406 33.734375 26.835938 C 33.746094 26.8125 33.753906 26.785156 33.765625 26.761719 C 33.824219 26.667969 33.878906 26.570312 33.933594 26.476562 C 33.945312 26.445312 33.957031 26.414062 33.964844 26.382812 C 33.988281 26.355469 34.011719 26.328125 34.035156 26.300781 C 34.0625 26.238281 34.089844 26.175781 34.113281 26.117188 C 34.105469 26.144531 34.097656 26.171875 34.085938 26.203125 C 34.160156 26.066406 34.230469 25.933594 34.300781 25.796875 C 34.261719 25.886719 34.226562 25.980469 34.1875 26.070312 C 34.140625 26.15625 34.089844 26.246094 34.042969 26.332031 C 34.015625 26.417969 33.984375 26.503906 33.949219 26.59375 C 33.847656 26.804688 33.746094 27.007812 33.636719 27.207031 Z M 35.179688 23.761719 C 35.164062 23.792969 35.148438 23.824219 35.128906 23.851562 C 35.1875 23.691406 35.242188 23.523438 35.292969 23.355469 C 35.308594 23.328125 35.324219 23.300781 35.335938 23.273438 C 35.285156 23.4375 35.234375 23.601562 35.179688 23.761719 Z M 35.75 20.914062 C 35.726562 21.078125 35.699219 21.238281 35.667969 21.398438 C 35.660156 21.410156 35.648438 21.417969 35.640625 21.429688 C 35.671875 21.265625 35.699219 21.105469 35.726562 20.9375 C 35.734375 20.929688 35.742188 20.921875 35.75 20.914062 Z M 35.75 20.914062 " fill-opacity="1" fill-rule="nonzero"/></g><g clip-path="url(#30cb58e265)"><path fill="#e9a6c7" d="M 0.882812 21.09375 C 0.875 21.042969 0.867188 20.992188 0.859375 20.945312 C 0.859375 20.992188 0.867188 21.042969 0.882812 21.09375 Z M 0.882812 21.09375 " fill-opacity="1" fill-rule="nonzero"/></g><path fill="#e9a6c7" d="M 2.742188 24.609375 C 2.523438 23.808594 2.34375 22.96875 2.207031 22.101562 C 1.90625 21.972656 1.652344 21.84375 1.445312 21.710938 C 1.570312 22.492188 1.734375 23.253906 1.933594 23.984375 C 2.152344 24.195312 2.425781 24.40625 2.742188 24.609375 Z M 2.742188 24.609375 " fill-opacity="1" fill-rule="nonzero"/><path fill="#e9a6c7" d="M 4.261719 25.410156 C 4.027344 24.519531 3.832031 23.582031 3.683594 22.609375 C 3.195312 22.46875 2.765625 22.324219 2.394531 22.179688 C 2.53125 23.0625 2.710938 23.914062 2.9375 24.730469 C 3.320312 24.964844 3.761719 25.191406 4.261719 25.410156 Z M 4.261719 25.410156 " fill-opacity="1" fill-rule="nonzero"/><path fill="#e9a6c7" d="M 6.523438 26.246094 C 6.28125 25.273438 6.074219 24.242188 5.917969 23.15625 C 5.203125 23.003906 4.554688 22.851562 3.976562 22.691406 C 4.125 23.683594 4.324219 24.632812 4.5625 25.539062 C 5.148438 25.78125 5.800781 26.019531 6.523438 26.246094 Z M 6.523438 26.246094 " fill-opacity="1" fill-rule="nonzero"/><path fill="#e9a6c7" d="M 9.636719 27.0625 C 9.414062 26.023438 9.214844 24.914062 9.058594 23.730469 C 8.074219 23.578125 7.167969 23.414062 6.34375 23.246094 C 6.5 24.347656 6.707031 25.390625 6.945312 26.378906 C 7.769531 26.621094 8.667969 26.851562 9.636719 27.0625 Z M 9.636719 27.0625 " fill-opacity="1" fill-rule="nonzero"/><path fill="#e9a6c7" d="M 13.640625 27.722656 C 13.488281 26.65625 13.34375 25.503906 13.21875 24.265625 C 11.9375 24.136719 10.746094 23.984375 9.632812 23.820312 C 9.789062 25.011719 9.984375 26.132812 10.199219 27.179688 C 11.277344 27.394531 12.425781 27.582031 13.640625 27.722656 Z M 13.640625 27.722656 " fill-opacity="1" fill-rule="nonzero"/><path fill="#e9a6c7" d="M 18.304688 28.003906 C 18.300781 26.9375 18.300781 25.78125 18.296875 24.535156 C 16.804688 24.535156 15.347656 24.457031 13.953125 24.332031 C 14.070312 25.578125 14.195312 26.730469 14.328125 27.800781 C 15.621094 27.929688 16.953125 28 18.304688 28.003906 Z M 18.304688 28.003906 " fill-opacity="1" fill-rule="nonzero"/><path fill="#e9a6c7" d="M 22.980469 27.738281 C 23.128906 26.671875 23.269531 25.515625 23.394531 24.277344 C 22.03125 24.410156 20.601562 24.503906 19.121094 24.53125 C 19.097656 25.777344 19.074219 26.929688 19.046875 27.996094 C 20.390625 27.972656 21.710938 27.882812 22.980469 27.738281 Z M 22.980469 27.738281 " fill-opacity="1" fill-rule="nonzero"/><path fill="#e9a6c7" d="M 27.578125 23.746094 C 26.507812 23.914062 25.351562 24.070312 24.109375 24.203125 C 23.976562 25.4375 23.820312 26.589844 23.65625 27.65625 C 24.839844 27.5 25.957031 27.304688 27.003906 27.082031 C 27.226562 26.042969 27.421875 24.929688 27.578125 23.746094 Z M 27.578125 23.746094 " fill-opacity="1" fill-rule="nonzero"/><path fill="#e9a6c7" d="M 30.742188 23.171875 C 29.949219 23.339844 29.082031 23.5 28.132812 23.65625 C 27.976562 24.824219 27.773438 25.929688 27.546875 26.960938 C 28.484375 26.746094 29.347656 26.511719 30.140625 26.269531 C 30.382812 25.292969 30.585938 24.257812 30.742188 23.171875 Z M 30.742188 23.171875 " fill-opacity="1" fill-rule="nonzero"/><path fill="#e9a6c7" d="M 33 22.621094 C 32.449219 22.78125 31.832031 22.933594 31.148438 23.085938 C 30.992188 24.152344 30.789062 25.175781 30.546875 26.136719 C 31.238281 25.910156 31.863281 25.675781 32.417969 25.433594 C 32.65625 24.539062 32.851562 23.597656 33 22.621094 Z M 33 22.621094 " fill-opacity="1" fill-rule="nonzero"/><path fill="#e9a6c7" d="M 34.492188 22.113281 C 34.144531 22.261719 33.738281 22.402344 33.277344 22.539062 C 33.132812 23.5 32.9375 24.425781 32.703125 25.304688 C 33.179688 25.085938 33.597656 24.859375 33.957031 24.632812 C 34.175781 23.824219 34.355469 22.984375 34.492188 22.113281 Z M 34.492188 22.113281 " fill-opacity="1" fill-rule="nonzero"/><path fill="#e9a6c7" d="M 34.886719 23.894531 C 35.085938 23.175781 35.25 22.425781 35.371094 21.65625 C 35.183594 21.789062 34.945312 21.914062 34.664062 22.039062 C 34.53125 22.894531 34.355469 23.71875 34.136719 24.511719 C 34.4375 24.308594 34.6875 24.101562 34.886719 23.894531 Z M 34.886719 23.894531 " fill-opacity="1" fill-rule="nonzero"/><path fill="#e9a6c7" d="M 35.503906 22.730469 C 35.46875 22.867188 35.433594 23.007812 35.394531 23.140625 C 35.453125 23.003906 35.484375 22.863281 35.503906 22.730469 Z M 35.503906 22.730469 " fill-opacity="1" fill-rule="nonzero"/><path fill="#e9a6c7" d="M 35.503906 22.730469 C 35.546875 22.542969 35.589844 22.355469 35.632812 22.167969 C 35.59375 22.335938 35.554688 22.5 35.511719 22.664062 C 35.507812 22.6875 35.503906 22.707031 35.503906 22.730469 Z M 35.503906 22.730469 " fill-opacity="1" fill-rule="nonzero"/><path fill="#e9a6c7" d="M 35.871094 20.902344 C 35.859375 20.980469 35.847656 21.058594 35.832031 21.132812 C 35.863281 21.054688 35.875 20.976562 35.871094 20.902344 Z M 35.871094 20.902344 " fill-opacity="1" fill-rule="nonzero"/><path fill="#e9a6c7" d="M 2.042969 25.203125 C 2.066406 25.261719 2.09375 25.324219 2.121094 25.386719 C 2.097656 25.324219 2.070312 25.261719 2.042969 25.203125 Z M 2.042969 25.203125 " fill-opacity="1" fill-rule="nonzero"/><path fill="#e9a6c7" d="M 5.234375 28.285156 C 4.933594 27.570312 4.660156 26.792969 4.417969 25.96875 C 3.914062 25.734375 3.46875 25.492188 3.082031 25.246094 C 3.3125 26.011719 3.578125 26.734375 3.871094 27.410156 C 4.269531 27.710938 4.722656 28.003906 5.234375 28.285156 Z M 5.234375 28.285156 " fill-opacity="1" fill-rule="nonzero"/><path fill="#e9a6c7" d="M 7.484375 29.320312 C 7.191406 28.5625 6.921875 27.738281 6.679688 26.851562 C 5.957031 26.613281 5.304688 26.363281 4.71875 26.105469 C 4.960938 26.941406 5.234375 27.722656 5.539062 28.449219 C 6.121094 28.753906 6.773438 29.046875 7.484375 29.320312 Z M 7.484375 29.320312 " fill-opacity="1" fill-rule="nonzero"/><path fill="#e9a6c7" d="M 10.476562 30.253906 C 10.230469 29.476562 9.996094 28.625 9.78125 27.699219 C 8.816406 27.484375 7.921875 27.246094 7.105469 26.988281 C 7.34375 27.882812 7.609375 28.714844 7.898438 29.476562 C 8.691406 29.761719 9.554688 30.023438 10.476562 30.253906 Z M 10.476562 30.253906 " fill-opacity="1" fill-rule="nonzero"/><path fill="#e9a6c7" d="M 14.167969 30.941406 C 14.019531 30.164062 13.875 29.308594 13.734375 28.375 C 12.539062 28.230469 11.402344 28.042969 10.339844 27.820312 C 10.546875 28.75 10.769531 29.601562 11.003906 30.382812 C 12.007812 30.613281 13.0625 30.800781 14.167969 30.941406 Z M 14.167969 30.941406 " fill-opacity="1" fill-rule="nonzero"/><path fill="#e9a6c7" d="M 18.3125 31.207031 C 18.308594 30.429688 18.308594 29.582031 18.304688 28.652344 C 16.984375 28.648438 15.679688 28.578125 14.414062 28.449219 C 14.535156 29.382812 14.660156 30.238281 14.789062 31.015625 C 15.941406 31.136719 17.121094 31.203125 18.3125 31.207031 Z M 18.3125 31.207031 " fill-opacity="1" fill-rule="nonzero"/><path fill="#e9a6c7" d="M 22.460938 30.953125 C 22.609375 30.175781 22.75 29.320312 22.886719 28.386719 C 21.636719 28.53125 20.347656 28.621094 19.03125 28.644531 C 19.011719 29.574219 18.988281 30.425781 18.964844 31.199219 C 20.152344 31.179688 21.324219 31.09375 22.460938 30.953125 Z M 22.460938 30.953125 " fill-opacity="1" fill-rule="nonzero"/><path fill="#e9a6c7" d="M 26.859375 27.71875 C 25.824219 27.949219 24.71875 28.148438 23.550781 28.304688 C 23.398438 29.238281 23.238281 30.09375 23.074219 30.875 C 24.15625 30.71875 25.191406 30.515625 26.167969 30.277344 C 26.414062 29.496094 26.644531 28.644531 26.859375 27.71875 Z M 26.859375 27.71875 " fill-opacity="1" fill-rule="nonzero"/><path fill="#e9a6c7" d="M 29.980469 26.875 C 29.191406 27.132812 28.332031 27.375 27.398438 27.59375 C 27.179688 28.515625 26.9375 29.367188 26.683594 30.144531 C 27.578125 29.90625 28.410156 29.636719 29.179688 29.34375 C 29.46875 28.585938 29.738281 27.761719 29.980469 26.875 Z M 29.980469 26.875 " fill-opacity="1" fill-rule="nonzero"/><path fill="#e9a6c7" d="M 32.261719 25.992188 C 31.707031 26.25 31.078125 26.5 30.386719 26.738281 C 30.144531 27.617188 29.875 28.433594 29.578125 29.1875 C 30.261719 28.914062 30.886719 28.621094 31.445312 28.3125 C 31.746094 27.59375 32.023438 26.820312 32.261719 25.992188 Z M 32.261719 25.992188 " fill-opacity="1" fill-rule="nonzero"/><path fill="#e9a6c7" d="M 33.8125 25.140625 C 33.449219 25.382812 33.027344 25.621094 32.546875 25.855469 C 32.308594 26.671875 32.035156 27.441406 31.734375 28.152344 C 32.222656 27.871094 32.652344 27.578125 33.027344 27.28125 C 33.320312 26.609375 33.582031 25.894531 33.8125 25.140625 Z M 33.8125 25.140625 " fill-opacity="1" fill-rule="nonzero"/><path fill="#e9a6c7" d="M 6.367188 30.507812 C 6.035156 29.972656 5.722656 29.378906 5.429688 28.730469 C 4.917969 28.441406 4.460938 28.140625 4.0625 27.832031 C 4.351562 28.449219 4.664062 29.019531 4.992188 29.539062 C 5.398438 29.875 5.855469 30.195312 6.367188 30.507812 Z M 6.367188 30.507812 " fill-opacity="1" fill-rule="nonzero"/><path fill="#e9a6c7" d="M 8.542969 31.605469 C 8.238281 31.058594 7.945312 30.453125 7.667969 29.78125 C 6.960938 29.503906 6.3125 29.207031 5.730469 28.898438 C 6.023438 29.546875 6.335938 30.144531 6.664062 30.683594 C 7.234375 31.007812 7.863281 31.316406 8.542969 31.605469 Z M 8.542969 31.605469 " fill-opacity="1" fill-rule="nonzero"/><path fill="#e9a6c7" d="M 11.335938 32.546875 C 11.09375 32.007812 10.859375 31.398438 10.628906 30.726562 C 9.71875 30.492188 8.867188 30.230469 8.082031 29.9375 C 8.351562 30.609375 8.636719 31.21875 8.9375 31.761719 C 9.683594 32.054688 10.484375 32.320312 11.335938 32.546875 Z M 11.335938 32.546875 " fill-opacity="1" fill-rule="nonzero"/><path fill="#e9a6c7" d="M 14.664062 33.203125 C 14.527344 32.671875 14.390625 32.074219 14.257812 31.410156 C 13.175781 31.273438 12.136719 31.082031 11.152344 30.851562 C 11.367188 31.523438 11.589844 32.132812 11.820312 32.671875 C 12.730469 32.894531 13.679688 33.074219 14.664062 33.203125 Z M 14.664062 33.203125 " fill-opacity="1" fill-rule="nonzero"/><path fill="#e9a6c7" d="M 18.316406 33.445312 C 18.316406 32.917969 18.3125 32.328125 18.3125 31.671875 C 17.148438 31.667969 15.996094 31.605469 14.867188 31.484375 C 14.980469 32.144531 15.097656 32.742188 15.21875 33.269531 C 16.234375 33.382812 17.273438 33.441406 18.316406 33.445312 Z M 18.316406 33.445312 " fill-opacity="1" fill-rule="nonzero"/><path fill="#e9a6c7" d="M 21.976562 33.214844 C 22.109375 32.683594 22.242188 32.085938 22.375 31.421875 C 21.257812 31.5625 20.113281 31.644531 18.953125 31.664062 C 18.933594 32.324219 18.914062 32.914062 18.894531 33.441406 C 19.933594 33.421875 20.96875 33.34375 21.976562 33.214844 Z M 21.976562 33.214844 " fill-opacity="1" fill-rule="nonzero"/><path fill="#e9a6c7" d="M 26.015625 30.746094 C 25.054688 30.988281 24.035156 31.1875 22.972656 31.34375 C 22.824219 32.007812 22.675781 32.605469 22.519531 33.140625 C 23.492188 32.996094 24.425781 32.800781 25.316406 32.566406 C 25.554688 32.027344 25.789062 31.421875 26.015625 30.746094 Z M 26.015625 30.746094 " fill-opacity="1" fill-rule="nonzero"/><path fill="#e9a6c7" d="M 28.996094 29.808594 C 28.234375 30.105469 27.410156 30.375 26.523438 30.617188 C 26.289062 31.289062 26.042969 31.898438 25.789062 32.4375 C 26.617188 32.203125 27.398438 31.929688 28.121094 31.632812 C 28.425781 31.085938 28.71875 30.480469 28.996094 29.808594 Z M 28.996094 29.808594 " fill-opacity="1" fill-rule="nonzero"/><path fill="#e9a6c7" d="M 31.253906 28.757812 C 30.695312 29.070312 30.074219 29.371094 29.390625 29.652344 C 29.113281 30.316406 28.816406 30.925781 28.503906 31.46875 C 29.164062 31.175781 29.769531 30.863281 30.316406 30.535156 C 30.648438 30 30.960938 29.40625 31.253906 28.757812 Z M 31.253906 28.757812 " fill-opacity="1" fill-rule="nonzero"/><path fill="#e9a6c7" d="M 32.839844 27.695312 C 32.460938 28.003906 32.027344 28.300781 31.539062 28.59375 C 31.246094 29.234375 30.933594 29.824219 30.601562 30.359375 C 31.089844 30.046875 31.527344 29.722656 31.910156 29.394531 C 32.242188 28.875 32.550781 28.308594 32.839844 27.695312 Z M 32.839844 27.695312 " fill-opacity="1" fill-rule="nonzero"/><path fill="#e9a6c7" d="M 3.039062 26.6875 C 3.085938 26.769531 3.132812 26.851562 3.179688 26.933594 C 3.132812 26.847656 3.085938 26.765625 3.039062 26.6875 Z M 3.039062 26.6875 " fill-opacity="1" fill-rule="nonzero"/><path fill="#e9a6c7" d="M 7.539062 32.09375 C 7.207031 31.726562 6.886719 31.304688 6.574219 30.835938 C 6.066406 30.523438 5.609375 30.195312 5.203125 29.863281 C 5.519531 30.328125 5.847656 30.746094 6.1875 31.121094 C 6.589844 31.457031 7.042969 31.785156 7.539062 32.09375 Z M 7.539062 32.09375 " fill-opacity="1" fill-rule="nonzero"/><path fill="#e9a6c7" d="M 9.597656 33.171875 C 9.304688 32.8125 9.015625 32.402344 8.734375 31.933594 C 8.058594 31.648438 7.4375 31.335938 6.871094 31.007812 C 7.179688 31.480469 7.496094 31.902344 7.824219 32.269531 C 8.367188 32.589844 8.960938 32.894531 9.597656 33.171875 Z M 9.597656 33.171875 " fill-opacity="1" fill-rule="nonzero"/><path fill="#e9a6c7" d="M 12.15625 34.066406 C 11.925781 33.726562 11.703125 33.324219 11.484375 32.871094 C 10.648438 32.644531 9.859375 32.382812 9.121094 32.09375 C 9.394531 32.558594 9.675781 32.96875 9.964844 33.324219 C 10.652344 33.605469 11.382812 33.855469 12.15625 34.066406 Z M 12.15625 34.066406 " fill-opacity="1" fill-rule="nonzero"/><path fill="#e9a6c7" d="M 15.121094 34.667969 C 14.996094 34.339844 14.871094 33.957031 14.75 33.519531 C 13.785156 33.390625 12.855469 33.214844 11.960938 32.992188 C 12.167969 33.445312 12.378906 33.84375 12.589844 34.179688 C 13.40625 34.386719 14.25 34.550781 15.121094 34.667969 Z M 15.121094 34.667969 " fill-opacity="1" fill-rule="nonzero"/><path fill="#e9a6c7" d="M 18.320312 33.753906 C 17.300781 33.753906 16.285156 33.695312 15.289062 33.582031 C 15.394531 34.019531 15.5 34.398438 15.605469 34.726562 C 16.5 34.828125 17.410156 34.882812 18.324219 34.882812 C 18.320312 34.558594 18.320312 34.183594 18.320312 33.753906 Z M 18.320312 33.753906 " fill-opacity="1" fill-rule="nonzero"/><path fill="#e9a6c7" d="M 18.878906 33.75 C 18.863281 34.179688 18.84375 34.554688 18.828125 34.878906 C 19.738281 34.863281 20.644531 34.792969 21.53125 34.679688 C 21.652344 34.351562 21.773438 33.96875 21.894531 33.53125 C 20.90625 33.65625 19.898438 33.730469 18.882812 33.75 Z M 18.878906 33.75 " fill-opacity="1" fill-rule="nonzero"/><path fill="#e9a6c7" d="M 25.167969 32.890625 C 24.292969 33.121094 23.375 33.3125 22.425781 33.453125 C 22.289062 33.894531 22.152344 34.277344 22.011719 34.609375 C 22.871094 34.476562 23.707031 34.300781 24.503906 34.085938 C 24.730469 33.742188 24.949219 33.34375 25.167969 32.890625 Z M 25.167969 32.890625 " fill-opacity="1" fill-rule="nonzero"/><path fill="#e9a6c7" d="M 27.933594 31.957031 C 27.21875 32.257812 26.449219 32.527344 25.632812 32.761719 C 25.402344 33.21875 25.171875 33.621094 24.933594 33.964844 C 25.6875 33.742188 26.402344 33.484375 27.074219 33.195312 C 27.367188 32.839844 27.65625 32.425781 27.933594 31.957031 Z M 27.933594 31.957031 " fill-opacity="1" fill-rule="nonzero"/><path fill="#e9a6c7" d="M 30.109375 30.863281 C 29.5625 31.195312 28.964844 31.507812 28.308594 31.796875 C 28.023438 32.265625 27.726562 32.683594 27.425781 33.039062 C 28.046875 32.757812 28.621094 32.449219 29.148438 32.125 C 29.476562 31.757812 29.796875 31.335938 30.109375 30.863281 Z M 30.109375 30.863281 " fill-opacity="1" fill-rule="nonzero"/><g clip-path="url(#154eabeaeb)"><path fill="#e9a6c7" d="M 7.746094 32.316406 C 7.25 32.007812 6.804688 31.683594 6.398438 31.347656 C 6.46875 31.417969 6.535156 31.488281 6.601562 31.554688 C 6.449219 31.40625 6.300781 31.257812 6.160156 31.109375 C 5.9375 30.917969 5.714844 30.710938 5.492188 30.488281 C 5.644531 30.640625 5.804688 30.792969 5.976562 30.941406 C 5.941406 30.902344 5.90625 30.863281 5.871094 30.820312 C 5.914062 30.859375 5.957031 30.898438 6.003906 30.9375 C 5.730469 30.640625 5.488281 30.339844 5.265625 30.046875 C 5.246094 30.027344 5.226562 30.007812 5.210938 29.988281 C 5.175781 29.941406 5.140625 29.894531 5.105469 29.847656 C 5.121094 29.859375 5.136719 29.875 5.148438 29.890625 C 5.011719 29.703125 4.886719 29.523438 4.765625 29.347656 C 4.769531 29.351562 4.777344 29.359375 4.785156 29.363281 C 4.457031 28.847656 4.144531 28.28125 3.859375 27.671875 C 3.667969 27.511719 3.488281 27.351562 3.328125 27.191406 C 3.324219 27.183594 3.316406 27.175781 3.3125 27.164062 C 3.261719 27.082031 3.214844 27 3.160156 26.921875 C 3.109375 26.832031 3.058594 26.742188 3.003906 26.648438 C 3.011719 26.65625 3.023438 26.667969 3.03125 26.675781 C 3.03125 26.679688 3.035156 26.683594 3.039062 26.6875 C 3.035156 26.683594 3.035156 26.679688 3.03125 26.675781 C 3.222656 26.871094 3.433594 27.0625 3.671875 27.253906 C 3.378906 26.585938 3.117188 25.875 2.890625 25.117188 C 2.566406 24.898438 2.292969 24.675781 2.070312 24.449219 C 2.136719 24.675781 2.210938 24.894531 2.285156 25.113281 C 2.269531 25.078125 2.253906 25.039062 2.234375 25.003906 C 2.089844 24.636719 1.949219 24.257812 1.816406 23.867188 C 1.820312 23.871094 1.824219 23.875 1.828125 23.878906 C 1.628906 23.160156 1.464844 22.414062 1.347656 21.644531 C 1.292969 21.605469 1.242188 21.566406 1.195312 21.527344 C 1.164062 21.363281 1.132812 21.195312 1.105469 21.023438 C 1.15625 21.0625 1.210938 21.101562 1.273438 21.140625 C 1.167969 20.351562 1.109375 19.546875 1.09375 18.742188 C 1.019531 18.734375 0.953125 18.726562 0.894531 18.71875 C 0.894531 18.679688 0.890625 18.636719 0.890625 18.59375 C 0.859375 18.601562 0.824219 18.609375 0.785156 18.617188 C 0.785156 18.644531 0.785156 18.675781 0.785156 18.703125 C 0.777344 18.703125 0.769531 18.703125 0.765625 18.699219 C 0.761719 18.675781 0.761719 18.648438 0.761719 18.621094 C 0.726562 18.628906 0.691406 18.636719 0.675781 18.652344 C 0.675781 18.65625 0.675781 18.664062 0.675781 18.671875 C 0.671875 18.667969 0.667969 18.667969 0.667969 18.664062 C 0.679688 19.296875 0.726562 19.921875 0.804688 20.542969 C 0.804688 20.621094 0.828125 20.707031 0.875 20.785156 C 0.867188 20.820312 0.863281 20.855469 0.859375 20.894531 C 0.871094 20.976562 0.886719 21.058594 0.898438 21.144531 C 0.894531 21.125 0.886719 21.109375 0.882812 21.09375 C 0.972656 21.652344 1.085938 22.199219 1.230469 22.734375 C 1.246094 22.867188 1.28125 23.011719 1.339844 23.152344 C 1.367188 23.308594 1.414062 23.46875 1.484375 23.628906 C 1.648438 24.175781 1.835938 24.699219 2.042969 25.203125 C 2.019531 25.136719 1.996094 25.066406 1.972656 25 C 2.039062 25.175781 2.109375 25.34375 2.183594 25.511719 C 2.210938 25.589844 2.242188 25.664062 2.277344 25.738281 C 2.34375 25.882812 2.414062 26.027344 2.484375 26.167969 C 2.691406 26.59375 2.910156 26.996094 3.144531 27.375 C 3.230469 27.539062 3.332031 27.703125 3.441406 27.867188 C 3.582031 28.097656 3.738281 28.328125 3.917969 28.558594 C 4.191406 28.960938 4.472656 29.335938 4.761719 29.675781 C 4.84375 29.777344 4.925781 29.875 5.007812 29.96875 C 5.082031 30.054688 5.160156 30.140625 5.242188 30.230469 C 5.519531 30.546875 5.835938 30.863281 6.1875 31.167969 C 6.476562 31.472656 6.769531 31.738281 7.0625 31.976562 C 7.164062 32.058594 7.261719 32.140625 7.363281 32.21875 C 7.761719 32.539062 8.195312 32.847656 8.671875 33.140625 C 8.359375 32.910156 8.050781 32.636719 7.746094 32.316406 Z M 2.433594 25.523438 C 2.519531 25.753906 2.609375 25.980469 2.703125 26.203125 C 2.746094 26.328125 2.789062 26.453125 2.835938 26.585938 C 2.886719 26.675781 2.941406 26.761719 2.992188 26.847656 C 3.027344 26.921875 3.0625 26.996094 3.101562 27.070312 C 3.027344 26.957031 2.957031 26.839844 2.886719 26.71875 C 2.898438 26.746094 2.90625 26.773438 2.917969 26.800781 C 2.894531 26.753906 2.871094 26.707031 2.851562 26.660156 C 2.820312 26.625 2.792969 26.585938 2.765625 26.550781 C 2.753906 26.515625 2.738281 26.476562 2.726562 26.441406 C 2.660156 26.328125 2.597656 26.210938 2.535156 26.089844 C 2.5625 26.132812 2.597656 26.171875 2.628906 26.214844 C 2.644531 26.246094 2.664062 26.277344 2.679688 26.308594 C 2.675781 26.292969 2.667969 26.277344 2.664062 26.261719 C 2.667969 26.265625 2.671875 26.269531 2.675781 26.277344 C 2.664062 26.25 2.65625 26.226562 2.644531 26.203125 C 2.582031 26.007812 2.527344 25.824219 2.472656 25.648438 C 2.378906 25.460938 2.289062 25.269531 2.203125 25.074219 C 2.175781 24.996094 2.148438 24.921875 2.121094 24.84375 C 2.222656 25.082031 2.328125 25.3125 2.4375 25.535156 C 2.4375 25.53125 2.433594 25.527344 2.433594 25.523438 Z M 1.878906 24.238281 C 1.847656 24.203125 1.816406 24.164062 1.789062 24.128906 C 1.785156 24.097656 1.78125 24.070312 1.777344 24.039062 C 1.734375 23.917969 1.6875 23.792969 1.644531 23.667969 C 1.660156 23.683594 1.671875 23.703125 1.6875 23.71875 C 1.710938 23.792969 1.738281 23.871094 1.765625 23.945312 C 1.761719 23.890625 1.753906 23.839844 1.746094 23.789062 C 1.765625 23.8125 1.785156 23.832031 1.804688 23.855469 C 1.835938 23.976562 1.855469 24.105469 1.878906 24.238281 Z M 1.039062 21.371094 C 1.007812 21.210938 0.980469 21.050781 0.957031 20.890625 C 0.964844 20.898438 0.972656 20.910156 0.984375 20.917969 C 1.007812 21.082031 1.039062 21.242188 1.066406 21.40625 C 1.058594 21.394531 1.046875 21.382812 1.039062 21.371094 Z M 0.835938 20.382812 C 0.839844 20.363281 0.847656 20.339844 0.859375 20.320312 C 0.871094 20.449219 0.886719 20.574219 0.902344 20.699219 C 0.894531 20.722656 0.886719 20.746094 0.878906 20.769531 C 0.863281 20.640625 0.847656 20.511719 0.835938 20.382812 Z M 1.359375 23.203125 C 1.363281 23.210938 1.367188 23.214844 1.367188 23.222656 C 1.316406 23.027344 1.265625 22.828125 1.21875 22.632812 C 1.214844 22.589844 1.214844 22.546875 1.214844 22.507812 C 1.246094 22.648438 1.277344 22.785156 1.3125 22.921875 C 1.3125 22.953125 1.316406 22.984375 1.320312 23.015625 C 1.394531 23.273438 1.472656 23.527344 1.558594 23.777344 C 1.550781 23.761719 1.542969 23.746094 1.535156 23.730469 C 1.558594 23.808594 1.582031 23.882812 1.605469 23.960938 C 1.519531 23.710938 1.4375 23.460938 1.359375 23.203125 Z M 3.699219 28.21875 C 3.652344 28.144531 3.605469 28.066406 3.558594 27.988281 C 3.632812 28.09375 3.703125 28.195312 3.777344 28.292969 C 3.804688 28.335938 3.828125 28.378906 3.855469 28.421875 C 3.902344 28.476562 3.953125 28.535156 4.003906 28.589844 C 4.035156 28.632812 4.066406 28.671875 4.097656 28.714844 C 4.089844 28.699219 4.082031 28.683594 4.074219 28.671875 C 4.117188 28.71875 4.164062 28.765625 4.207031 28.816406 C 4.234375 28.859375 4.261719 28.902344 4.289062 28.945312 C 4.417969 29.097656 4.546875 29.246094 4.675781 29.390625 C 4.519531 29.242188 4.375 29.089844 4.238281 28.941406 C 4.226562 28.917969 4.210938 28.894531 4.199219 28.875 C 4.03125 28.667969 3.863281 28.449219 3.699219 28.21875 Z M 3.699219 28.21875 " fill-opacity="1" fill-rule="nonzero"/></g><path fill="#e9a6c7" d="M 9.78125 33.382812 C 9.152344 33.109375 8.566406 32.8125 8.027344 32.492188 C 8.328125 32.808594 8.636719 33.078125 8.941406 33.304688 C 9.453125 33.605469 10.003906 33.886719 10.59375 34.144531 C 10.324219 33.9375 10.050781 33.683594 9.78125 33.382812 Z M 9.78125 33.382812 " fill-opacity="1" fill-rule="nonzero"/><path fill="#e9a6c7" d="M 12.292969 34.265625 C 11.539062 34.054688 10.820312 33.8125 10.140625 33.535156 C 10.402344 33.832031 10.664062 34.082031 10.925781 34.28125 C 11.554688 34.539062 12.214844 34.765625 12.90625 34.957031 C 12.699219 34.773438 12.496094 34.542969 12.292969 34.265625 Z M 12.292969 34.265625 " fill-opacity="1" fill-rule="nonzero"/><path fill="#e9a6c7" d="M 12.722656 34.378906 C 12.910156 34.652344 13.101562 34.882812 13.292969 35.0625 C 14.015625 35.246094 14.761719 35.390625 15.527344 35.496094 C 15.414062 35.328125 15.304688 35.113281 15.199219 34.855469 C 14.347656 34.742188 13.519531 34.582031 12.722656 34.378906 Z M 12.722656 34.378906 " fill-opacity="1" fill-rule="nonzero"/><path fill="#e9a6c7" d="M 15.671875 34.917969 C 15.765625 35.171875 15.859375 35.382812 15.957031 35.550781 C 16.738281 35.640625 17.53125 35.683594 18.328125 35.6875 C 18.328125 35.519531 18.328125 35.316406 18.324219 35.070312 C 17.433594 35.066406 16.546875 35.015625 15.671875 34.917969 Z M 15.671875 34.917969 " fill-opacity="1" fill-rule="nonzero"/><path fill="#e9a6c7" d="M 18.769531 35.683594 C 19.5625 35.667969 20.355469 35.605469 21.132812 35.503906 C 21.242188 35.335938 21.351562 35.121094 21.457031 34.867188 C 20.589844 34.980469 19.707031 35.046875 18.816406 35.0625 C 18.800781 35.3125 18.785156 35.515625 18.769531 35.683594 Z M 18.769531 35.683594 " fill-opacity="1" fill-rule="nonzero"/><path fill="#e9a6c7" d="M 21.925781 34.800781 C 21.804688 35.058594 21.679688 35.273438 21.554688 35.445312 C 22.3125 35.328125 23.050781 35.167969 23.761719 34.976562 C 23.964844 34.792969 24.167969 34.5625 24.367188 34.285156 C 23.582031 34.496094 22.765625 34.671875 21.925781 34.800781 Z M 21.925781 34.800781 " fill-opacity="1" fill-rule="nonzero"/><path fill="#e9a6c7" d="M 26.890625 33.40625 C 26.230469 33.691406 25.527344 33.945312 24.785156 34.164062 C 24.574219 34.445312 24.359375 34.679688 24.144531 34.867188 C 24.824219 34.664062 25.46875 34.429688 26.082031 34.164062 C 26.351562 33.960938 26.621094 33.707031 26.890625 33.40625 Z M 26.890625 33.40625 " fill-opacity="1" fill-rule="nonzero"/><path fill="#e9a6c7" d="M 28.941406 32.347656 C 28.417969 32.667969 27.851562 32.972656 27.238281 33.253906 C 26.964844 33.554688 26.6875 33.8125 26.410156 34.023438 C 26.980469 33.757812 27.519531 33.472656 28.015625 33.167969 C 28.324219 32.9375 28.636719 32.664062 28.941406 32.347656 Z M 28.941406 32.347656 " fill-opacity="1" fill-rule="nonzero"/></svg>